<svg width="1440" height="1024" viewBox="0 0 1440 1024" fill="none" xmlns="http://www.w3.org/2000/svg">
<g clip-path="url(#clip0_1_4)">
<rect width="1440" height="1024" fill="#213A2A"/>
<line x1="91.5" y1="946" x2="91.5" y2="1024" stroke="#C07E22" stroke-width="3"/>
<line x1="231.5" y1="946" x2="231.5" y2="1024" stroke="#C07E22" stroke-width="3"/>
<line x1="371.5" y1="946" x2="371.5" y2="1024" stroke="#C07E22" stroke-width="3"/>
<line x1="1071.5" y1="946" x2="1071.5" y2="1024" stroke="#C07E22" stroke-width="3"/>
<line x1="1211.5" y1="946" x2="1211.5" y2="1024" stroke="#C07E22" stroke-width="3"/>
<line x1="1351.5" y1="946" x2="1351.5" y2="1024" stroke="#C07E22" stroke-width="3"/>
<rect y="931.982" width="1440" height="14" fill="#C07E22"/>
<line y1="-0.5" x2="1440" y2="-0.5" transform="matrix(1 -0.000681273 0.00070787 1 0 932.963)" stroke="#E2D9BC"/>
<line y1="-0.5" x2="1440" y2="-0.5" transform="matrix(1 -0.000681273 0.00070787 1 0 883.911)" stroke="#E2D9BC"/>
<line y1="-0.5" x2="1440" y2="-0.5" transform="matrix(1 -0.000681273 0.00070787 1 0 834.86)" stroke="#E2D9BC"/>
<line y1="-0.5" x2="1440" y2="-0.5" transform="matrix(1 -0.000681273 0.00070787 1 0 785.808)" stroke="#E2D9BC"/>
<line y1="-0.5" x2="1440" y2="-0.5" transform="matrix(1 -0.000681273 0.00070787 1 0 736.756)" stroke="#E2D9BC"/>
<line y1="-0.5" x2="1440" y2="-0.5" transform="matrix(1 -0.000681273 0.00070787 1 0 687.705)" stroke="#E2D9BC"/>
<line y1="-0.5" x2="1440" y2="-0.5" transform="matrix(1 -0.000681273 0.00070787 1 0 638.653)" stroke="#E2D9BC"/>
<line y1="-0.5" x2="1440" y2="-0.5" transform="matrix(1 -0.000681273 0.00070787 1 0 589.601)" stroke="#E2D9BC"/>
<line y1="-0.5" x2="1440" y2="-0.5" transform="matrix(1 -0.000681273 0.00070787 1 0 540.55)" stroke="#E2D9BC"/>
<line y1="-0.5" x2="1440" y2="-0.5" transform="matrix(1 -0.000681273 0.00070787 1 0 491.498)" stroke="#E2D9BC"/>
<line y1="-0.5" x2="1440" y2="-0.5" transform="matrix(1 -0.000681273 0.00070787 1 0 442.446)" stroke="#E2D9BC"/>
<line y1="-0.5" x2="1440" y2="-0.5" transform="matrix(1 -0.000681273 0.00070787 1 0 393.395)" stroke="#E2D9BC"/>
<line y1="-0.5" x2="1440" y2="-0.5" transform="matrix(1 -0.000681273 0.00070787 1 0 344.343)" stroke="#E2D9BC"/>
<line y1="-0.5" x2="1440" y2="-0.5" transform="matrix(1 -0.000681273 0.00070787 1 0 295.291)" stroke="#E2D9BC"/>
<line y1="-0.5" x2="1440" y2="-0.5" transform="matrix(1 -0.000681273 0.00070787 1 0 246.239)" stroke="#E2D9BC"/>
<line y1="-0.5" x2="1440" y2="-0.5" transform="matrix(1 -0.000681273 0.00070787 1 0 197.188)" stroke="#E2D9BC"/>
<line y1="-0.5" x2="1440" y2="-0.5" transform="matrix(1 -0.000681273 0.00070787 1 0 148.136)" stroke="#E2D9BC"/>
<line y1="-0.5" x2="1440" y2="-0.5" transform="matrix(1 -0.000681273 0.00070787 1 0 99.0844)" stroke="#E2D9BC"/>
<line y1="-0.5" x2="1440" y2="-0.5" transform="matrix(1 -0.000681141 0.000708008 1 0 50.0325)" stroke="#E2D9BC"/>
<line x1="30.5" y1="883.911" x2="30.5" y2="932.963" stroke="#E2D9BC"/>
<line x1="30.5" y1="785.808" x2="30.5" y2="834.86" stroke="#E2D9BC"/>
<line x1="30.5" y1="687.705" x2="30.5" y2="736.756" stroke="#E2D9BC"/>
<line x1="30.5" y1="589.601" x2="30.5" y2="638.653" stroke="#E2D9BC"/>
<line x1="30.5" y1="491.498" x2="30.5" y2="540.55" stroke="#E2D9BC"/>
<line x1="30.5" y1="393.395" x2="30.5" y2="442.446" stroke="#E2D9BC"/>
<line x1="30.5" y1="295.291" x2="30.5" y2="344.343" stroke="#E2D9BC"/>
<line x1="30.5" y1="197.188" x2="30.5" y2="246.239" stroke="#E2D9BC"/>
<line x1="87.5" y1="834.86" x2="87.5" y2="883.911" stroke="#E2D9BC"/>
<line x1="87.5" y1="735.775" x2="87.5" y2="784.827" stroke="#E2D9BC"/>
<line x1="87.5" y1="638.653" x2="87.5" y2="687.705" stroke="#E2D9BC"/>
<line x1="87.5" y1="540.55" x2="87.5" y2="589.601" stroke="#E2D9BC"/>
<line x1="87.5" y1="442.446" x2="87.5" y2="491.498" stroke="#E2D9BC"/>
<line x1="87.5" y1="344.343" x2="87.5" y2="393.395" stroke="#E2D9BC"/>
<line x1="87.5" y1="245.258" x2="87.5" y2="294.31" stroke="#E2D9BC"/>
<line x1="87.5" y1="147.155" x2="87.5" y2="196.207" stroke="#E2D9BC"/>
<line x1="1352.5" y1="833.879" x2="1352.5" y2="882.93" stroke="#E2D9BC"/>
<line x1="1352.5" y1="735.775" x2="1352.5" y2="784.827" stroke="#E2D9BC"/>
<line x1="1352.5" y1="637.672" x2="1352.5" y2="686.724" stroke="#E2D9BC"/>
<line x1="1352.5" y1="539.569" x2="1352.5" y2="588.62" stroke="#E2D9BC"/>
<line x1="1352.5" y1="442.446" x2="1352.5" y2="490.517" stroke="#E2D9BC"/>
<line x1="1352.5" y1="342.381" x2="1352.5" y2="391.432" stroke="#E2D9BC"/>
<line x1="1352.5" y1="245.258" x2="1352.5" y2="294.31" stroke="#E2D9BC"/>
<line x1="1352.5" y1="147.155" x2="1352.5" y2="196.207" stroke="#E2D9BC"/>
<line y1="-0.5" x2="49.0517" y2="-0.5" transform="matrix(0 1 1 0 1410 882.93)" stroke="#E2D9BC"/>
<line y1="-0.5" x2="49.0517" y2="-0.5" transform="matrix(0 1 1 0 1410 784.827)" stroke="#E2D9BC"/>
<line y1="-0.5" x2="49.0517" y2="-0.5" transform="matrix(0 1 1 0 1410 686.724)" stroke="#E2D9BC"/>
<line y1="-0.5" x2="49.0517" y2="-0.5" transform="matrix(0 1 1 0 1410 588.62)" stroke="#E2D9BC"/>
<line y1="-0.5" x2="49.0517" y2="-0.5" transform="matrix(0 1 1 0 1410 490.517)" stroke="#E2D9BC"/>
<line y1="-0.5" x2="49.0517" y2="-0.5" transform="matrix(0 1 1 0 1410 392.414)" stroke="#E2D9BC"/>
<line y1="-0.5" x2="49.0517" y2="-0.5" transform="matrix(0 1 1 0 1410 294.31)" stroke="#E2D9BC"/>
<line y1="-0.5" x2="49.0517" y2="-0.5" transform="matrix(0 1 1 0 1410 196.207)" stroke="#E2D9BC"/>
<line x1="30.5" x2="30.5" y2="49.0517" stroke="#E2D9BC"/>
<line x1="145.5" x2="145.5" y2="49.0517" stroke="#E2D9BC"/>
<line x1="260.5" x2="260.5" y2="49.0517" stroke="#E2D9BC"/>
<line x1="375.5" x2="375.5" y2="49.0517" stroke="#E2D9BC"/>
<line x1="490.5" x2="490.5" y2="49.0517" stroke="#E2D9BC"/>
<line x1="605.5" x2="605.5" y2="49.0517" stroke="#E2D9BC"/>
<line x1="720.5" x2="720.5" y2="49.0517" stroke="#E2D9BC"/>
<line x1="835.5" x2="835.5" y2="49.0517" stroke="#E2D9BC"/>
<line x1="950.5" x2="950.5" y2="49.0517" stroke="#E2D9BC"/>
<line x1="1065.5" x2="1065.5" y2="49.0517" stroke="#E2D9BC"/>
<line x1="1180.5" x2="1180.5" y2="49.0517" stroke="#E2D9BC"/>
<line x1="1295.5" x2="1295.5" y2="49.0517" stroke="#E2D9BC"/>
<line x1="1410.5" x2="1410.5" y2="49.0517" stroke="#E2D9BC"/>
<line x1="87.5" y1="49.0517" x2="87.5" y2="98.1034" stroke="#E2D9BC"/>
<line x1="202.5" y1="49.0517" x2="202.5" y2="98.1034" stroke="#E2D9BC"/>
<line x1="317.5" y1="49.0517" x2="317.5" y2="98.1034" stroke="#E2D9BC"/>
<line x1="432.5" y1="49.0517" x2="432.5" y2="98.1034" stroke="#E2D9BC"/>
<line x1="547.5" y1="49.0517" x2="547.5" y2="98.1034" stroke="#E2D9BC"/>
<line x1="662.5" y1="49.0517" x2="662.5" y2="98.1034" stroke="#E2D9BC"/>
<line x1="777.5" y1="49.0517" x2="777.5" y2="98.1034" stroke="#E2D9BC"/>
<line x1="892.5" y1="49.0517" x2="892.5" y2="98.1034" stroke="#E2D9BC"/>
<line x1="1007.5" y1="49.0517" x2="1007.5" y2="98.1034" stroke="#E2D9BC"/>
<line x1="1122.5" y1="49.0517" x2="1122.5" y2="98.1034" stroke="#E2D9BC"/>
<line x1="1237.5" y1="49.0517" x2="1237.5" y2="98.1034" stroke="#E2D9BC"/>
<line x1="1352.5" y1="49.0517" x2="1352.5" y2="98.1034" stroke="#E2D9BC"/>
<line x1="30.5" y1="98.1034" x2="30.5" y2="147.155" stroke="#E2D9BC"/>
<line x1="145.5" y1="98.1034" x2="145.5" y2="147.155" stroke="#E2D9BC"/>
<line x1="260.5" y1="98.1034" x2="260.5" y2="147.155" stroke="#E2D9BC"/>
<line x1="375.5" y1="98.1034" x2="375.5" y2="147.155" stroke="#E2D9BC"/>
<line x1="490.5" y1="98.1034" x2="490.5" y2="147.155" stroke="#E2D9BC"/>
<line x1="605.5" y1="98.1034" x2="605.5" y2="147.155" stroke="#E2D9BC"/>
<line x1="720.5" y1="98.1034" x2="720.5" y2="147.155" stroke="#E2D9BC"/>
<line x1="835.5" y1="98.1034" x2="835.5" y2="147.155" stroke="#E2D9BC"/>
<line x1="950.5" y1="98.1034" x2="950.5" y2="147.155" stroke="#E2D9BC"/>
<line x1="1065.5" y1="98.1034" x2="1065.5" y2="147.155" stroke="#E2D9BC"/>
<line x1="1180.5" y1="98.1034" x2="1180.5" y2="147.155" stroke="#E2D9BC"/>
<line x1="1295.5" y1="98.1034" x2="1295.5" y2="147.155" stroke="#E2D9BC"/>
<line x1="1410.5" y1="98.1034" x2="1410.5" y2="147.155" stroke="#E2D9BC"/>
<rect x="110" y="97" width="1220" height="835" rx="50" fill="#E2D9BC"/>
<rect x="135" y="125" width="1170" height="780" rx="30" fill="#213A2A"/>
<rect x="552.5" y="905.5" width="334" height="40" rx="4.5" fill="#47423B" stroke="#1C1B19" stroke-linejoin="round"/>
<rect x="507.5" y="944.5" width="424" height="40" rx="4.5" fill="#47423B" stroke="#1C1B19" stroke-linejoin="round"/>
<rect x="462.5" y="983.5" width="514" height="40" rx="4.5" fill="#47423B" stroke="#1C1B19" stroke-linejoin="round"/>
<path d="M1303.99 231C1303.45 249.858 1287.83 265 1268.62 265C1249.42 265 1233.8 249.858 1233.26 231L1235.11 231L1242.9 231L1268.62 231L1294.35 231L1302.14 231L1303.99 231Z" fill="#E2D9BC" stroke="#213A2A" stroke-width="2"/>
<path d="M1231.23 231C1230.69 249.846 1214.87 265 1195.37 265C1175.88 265 1160.06 249.846 1159.52 231L1161.4 231L1169.3 231L1195.37 231L1221.45 231L1229.35 231L1231.23 231Z" fill="#E2D9BC" stroke="#213A2A" stroke-width="2"/>
<path d="M1157.49 231C1156.95 249.858 1141.33 265 1122.13 265C1102.92 265 1087.3 249.858 1086.76 231L1088.61 231L1096.4 231L1122.13 231L1147.85 231L1155.64 231L1157.49 231Z" fill="#E2D9BC" stroke="#213A2A" stroke-width="2"/>
<path d="M1084.74 231C1084.19 249.846 1068.37 265 1048.88 265C1029.38 265 1013.56 249.846 1013.02 231L1014.9 231L1022.8 231L1048.88 231L1074.95 231L1082.85 231L1084.74 231Z" fill="#E2D9BC" stroke="#213A2A" stroke-width="2"/>
<path d="M938.236 231C937.701 249.858 922.084 265 902.875 265C883.666 265 868.048 249.858 867.513 231L869.358 231L877.153 231L902.875 231L928.596 231L936.392 231L938.236 231Z" fill="#E2D9BC" stroke="#213A2A" stroke-width="2"/>
<path d="M1010.99 231C1010.45 249.858 994.835 265 975.626 265C956.417 265 940.8 249.858 940.265 231L942.109 231L949.905 231L975.626 231L1001.35 231L1009.14 231L1010.99 231Z" fill="#E2D9BC" stroke="#213A2A" stroke-width="2"/>
<path d="M865.485 231C864.942 249.846 849.117 265 829.625 265C810.133 265 794.308 249.846 793.766 231L795.649 231L803.551 231L829.625 231L855.699 231L863.601 231L865.485 231Z" fill="#E2D9BC" stroke="#213A2A" stroke-width="2"/>
<path d="M718.986 231C718.451 249.858 702.833 265 683.624 265C664.415 265 648.798 249.858 648.263 231L650.107 231L657.903 231L683.624 231L709.346 231L717.141 231L718.986 231Z" fill="#E2D9BC" stroke="#213A2A" stroke-width="2"/>
<path d="M791.737 231C791.202 249.858 775.585 265 756.376 265C737.167 265 721.549 249.858 721.014 231L722.859 231L730.654 231L756.376 231L782.097 231L789.893 231L791.737 231Z" fill="#E2D9BC" stroke="#213A2A" stroke-width="2"/>
<path d="M646.234 231C645.692 249.846 629.867 265 610.375 265C590.883 265 575.058 249.846 574.515 231L576.399 231L584.301 231L610.375 231L636.449 231L644.351 231L646.234 231Z" fill="#E2D9BC" stroke="#213A2A" stroke-width="2"/>
<path d="M499.735 231C499.193 249.846 483.367 265 463.876 265C444.384 265 428.558 249.846 428.016 231L429.899 231L437.802 231L463.876 231L489.949 231L497.852 231L499.735 231Z" fill="#E2D9BC" stroke="#213A2A" stroke-width="2"/>
<path d="M572.487 231C571.952 249.858 556.334 265 537.125 265C517.916 265 502.299 249.858 501.764 231L503.608 231L511.404 231L537.125 231L562.847 231L570.642 231L572.487 231Z" fill="#E2D9BC" stroke="#213A2A" stroke-width="2"/>
<path d="M425.988 231C425.453 249.858 409.835 265 390.626 265C371.417 265 355.8 249.858 355.265 231L357.109 231L364.905 231L390.626 231L416.348 231L424.143 231L425.988 231Z" fill="#E2D9BC" stroke="#213A2A" stroke-width="2"/>
<path d="M353.236 231C352.701 249.858 337.084 265 317.875 265C298.666 265 283.048 249.858 282.513 231L284.358 231L292.153 231L317.875 231L343.596 231L351.392 231L353.236 231Z" fill="#E2D9BC" stroke="#213A2A" stroke-width="2"/>
<path d="M280.485 231C279.942 249.846 264.117 265 244.625 265C225.133 265 209.308 249.846 208.766 231L210.649 231L218.551 231L244.625 231L270.699 231L278.601 231L280.485 231Z" fill="#E2D9BC" stroke="#213A2A" stroke-width="2"/>
<path d="M206.737 231C206.202 249.858 190.585 265 171.376 265C152.167 265 136.549 249.858 136.014 231L137.859 231L145.654 231L171.376 231L197.097 231L204.893 231L206.737 231Z" fill="#E2D9BC" stroke="#213A2A" stroke-width="2"/>
<path d="M1303.01 231H1304.01V230V155C1304.01 137.879 1290.13 124 1273.01 124H166.993C149.872 124 135.993 137.879 135.993 155V230V231H136.993H1303.01Z" fill="#E2D9BC" stroke="#213A2A" stroke-width="2"/>
<path d="M532.281 183.969C532.281 183.156 532.031 182.615 531.531 182.344C531.052 182.073 530.344 181.938 529.406 181.938H514.906V179.688H529.406C532.823 179.688 534.531 181.115 534.531 183.969C534.531 185.573 534.062 186.729 533.125 187.438C532.188 188.146 530.948 188.5 529.406 188.5H514.906V186.25H529.406C531.323 186.25 532.281 185.49 532.281 183.969ZM513.656 202H511.406V163.75H529.406C530.823 163.75 532.031 164.188 533.031 165.062C534.031 165.917 534.531 166.99 534.531 168.281C534.531 169.99 534.062 171.229 533.125 172C532.188 172.75 530.948 173.125 529.406 173.125H514.906V170.875H529.406C531.323 170.875 532.281 170.01 532.281 168.281C532.281 167.573 532.01 167.021 531.469 166.625C530.927 166.208 530.24 166 529.406 166H513.656V202ZM514.906 175.375H529.406C531.469 175.375 533.208 174.76 534.625 173.531C536.062 172.281 536.781 170.531 536.781 168.281C536.781 166.469 536.031 164.885 534.531 163.531C533.052 162.177 531.344 161.5 529.406 161.5H509.156V202H506.906V159.25H529.406C531.969 159.25 534.208 160.156 536.125 161.969C538.062 163.76 539.031 165.865 539.031 168.281C539.031 170.177 538.583 171.833 537.688 173.25C536.812 174.667 535.625 175.76 534.125 176.531C537.396 177.698 539.031 180.073 539.031 183.656C539.031 186.49 538.094 188.76 536.219 190.469C534.344 192.156 532.073 193 529.406 193H514.906V190.75H529.406C531.469 190.75 533.208 190.135 534.625 188.906C536.062 187.656 536.781 185.906 536.781 183.656C536.781 182.135 536.24 180.792 535.156 179.625C534.073 178.458 532.479 177.781 530.375 177.594C530.167 177.615 529.844 177.625 529.406 177.625H514.906V175.375ZM543.531 168.281C543.531 171.198 542.5 173.833 540.438 176.188C542.5 178.479 543.531 180.969 543.531 183.656C543.531 186.26 542.875 188.635 541.562 190.781C540.271 192.906 538.542 194.562 536.375 195.75C534.229 196.917 531.906 197.5 529.406 197.5H514.906V195.25H529.406C532.656 195.25 535.448 194.167 537.781 192C540.115 189.812 541.281 187.031 541.281 183.656C541.281 182.448 540.969 181.115 540.344 179.656C539.74 178.177 538.896 177.052 537.812 176.281C540.125 174.115 541.281 171.448 541.281 168.281C541.281 165.24 540.094 162.604 537.719 160.375C535.344 158.125 532.573 157 529.406 157H504.656V202H502.406V154.75H529.406C531.885 154.75 534.208 155.365 536.375 156.594C538.562 157.802 540.302 159.458 541.594 161.562C542.885 163.646 543.531 165.885 543.531 168.281ZM543 176.312C544.854 173.833 545.781 171.156 545.781 168.281C545.781 165.469 545.031 162.854 543.531 160.438C542.052 158 540.052 156.073 537.531 154.656C535.01 153.219 532.302 152.5 529.406 152.5H500.156V202H497.906V150.25H529.406C532.698 150.25 535.771 151.062 538.625 152.688C541.5 154.312 543.781 156.521 545.469 159.312C547.177 162.083 548.031 165.073 548.031 168.281C548.031 171.344 547.167 174.031 545.438 176.344C547.167 178.74 548.031 181.177 548.031 183.656C548.031 186.448 547.531 189.01 546.531 191.344C545.531 193.656 544.177 195.583 542.469 197.125C540.781 198.667 538.812 199.865 536.562 200.719C534.312 201.573 531.927 202 529.406 202H514.906V199.75H529.406C531.594 199.75 533.688 199.344 535.688 198.531C537.688 197.698 539.427 196.573 540.906 195.156C542.385 193.74 543.562 192.031 544.438 190.031C545.333 188.031 545.781 185.906 545.781 183.656C545.781 182.656 545.542 181.458 545.062 180.062C544.604 178.646 543.917 177.396 543 176.312ZM570.281 173.156C568.531 174.906 567.656 177.021 567.656 179.5C567.656 181.979 568.531 184.104 570.281 185.875C572.052 187.625 574.177 188.5 576.656 188.5C579.135 188.5 581.25 187.625 583 185.875C584.771 184.104 585.656 181.979 585.656 179.5C585.656 177.021 584.771 174.906 583 173.156C581.25 171.385 579.135 170.5 576.656 170.5C574.177 170.5 572.052 171.385 570.281 173.156ZM568.688 187.469C566.5 185.26 565.406 182.604 565.406 179.5C565.406 176.396 566.5 173.75 568.688 171.562C570.896 169.354 573.552 168.25 576.656 168.25C579.76 168.25 582.406 169.354 584.594 171.562C586.802 173.75 587.906 176.396 587.906 179.5C587.906 182.604 586.802 185.26 584.594 187.469C582.406 189.656 579.76 190.75 576.656 190.75C573.552 190.75 570.896 189.656 568.688 187.469ZM567.094 169.969C564.469 172.615 563.156 175.792 563.156 179.5C563.156 183.208 564.469 186.385 567.094 189.031C569.74 191.677 572.927 193 576.656 193C580.385 193 583.562 191.677 586.188 189.031C588.833 186.385 590.156 183.208 590.156 179.5C590.156 175.792 588.833 172.615 586.188 169.969C583.562 167.323 580.385 166 576.656 166C572.927 166 569.74 167.323 567.094 169.969ZM563 187.406C561.604 184.99 560.906 182.354 560.906 179.5C560.906 176.646 561.604 174.01 563 171.594C564.417 169.177 566.333 167.271 568.75 165.875C571.167 164.458 573.802 163.75 576.656 163.75C579.51 163.75 582.146 164.458 584.562 165.875C586.979 167.271 588.885 169.177 590.281 171.594C591.698 174.01 592.406 176.646 592.406 179.5C592.406 182.354 591.698 184.99 590.281 187.406C588.885 189.823 586.979 191.74 584.562 193.156C582.146 194.552 579.51 195.25 576.656 195.25C573.802 195.25 571.167 194.552 568.75 193.156C566.333 191.74 564.417 189.823 563 187.406ZM560.062 172.531C559.125 174.74 558.656 177.062 558.656 179.5C558.656 181.938 559.125 184.271 560.062 186.5C561.021 188.708 562.302 190.625 563.906 192.25C565.531 193.854 567.448 195.135 569.656 196.094C571.885 197.031 574.219 197.5 576.656 197.5C579.094 197.5 581.417 197.031 583.625 196.094C585.854 195.135 587.771 193.854 589.375 192.25C591 190.625 592.281 188.708 593.219 186.5C594.177 184.271 594.656 181.938 594.656 179.5C594.656 177.062 594.177 174.74 593.219 172.531C592.281 170.302 591 168.385 589.375 166.781C587.771 165.156 585.854 163.875 583.625 162.938C581.417 161.979 579.094 161.5 576.656 161.5C574.219 161.5 571.885 161.979 569.656 162.938C567.448 163.875 565.531 165.156 563.906 166.781C562.302 168.385 561.021 170.302 560.062 172.531ZM558 187.375C556.938 184.875 556.406 182.25 556.406 179.5C556.406 176.75 556.938 174.125 558 171.625C559.083 169.125 560.521 166.979 562.312 165.188C564.125 163.375 566.281 161.938 568.781 160.875C571.281 159.792 573.906 159.25 576.656 159.25C579.406 159.25 582.031 159.792 584.531 160.875C587.031 161.938 589.177 163.375 590.969 165.188C592.781 166.979 594.219 169.125 595.281 171.625C596.365 174.125 596.906 176.75 596.906 179.5C596.906 182.25 596.365 184.875 595.281 187.375C594.219 189.875 592.781 192.031 590.969 193.844C589.177 195.635 587.031 197.073 584.531 198.156C582.031 199.219 579.406 199.75 576.656 199.75C573.906 199.75 571.281 199.219 568.781 198.156C566.281 197.073 564.125 195.635 562.312 193.844C560.521 192.031 559.083 189.875 558 187.375ZM555.938 170.781C554.75 173.552 554.156 176.458 554.156 179.5C554.156 182.542 554.75 185.458 555.938 188.25C557.125 191.021 558.719 193.417 560.719 195.438C562.74 197.438 565.135 199.031 567.906 200.219C570.698 201.406 573.615 202 576.656 202C579.698 202 582.604 201.406 585.375 200.219C588.167 199.031 590.562 197.438 592.562 195.438C594.583 193.417 596.188 191.021 597.375 188.25C598.562 185.458 599.156 182.542 599.156 179.5C599.156 176.458 598.562 173.552 597.375 170.781C596.188 167.99 594.583 165.594 592.562 163.594C590.562 161.573 588.167 159.969 585.375 158.781C582.604 157.594 579.698 157 576.656 157C573.615 157 570.698 157.594 567.906 158.781C565.135 159.969 562.74 161.573 560.719 163.594C558.719 165.594 557.125 167.99 555.938 170.781ZM553.875 189.125C552.562 186.062 551.906 182.854 551.906 179.5C551.906 176.146 552.562 172.948 553.875 169.906C555.188 166.844 556.948 164.208 559.156 162C561.365 159.792 563.99 158.031 567.031 156.719C570.094 155.406 573.302 154.75 576.656 154.75C580.01 154.75 583.208 155.406 586.25 156.719C589.312 158.031 591.948 159.792 594.156 162C596.365 164.208 598.125 166.844 599.438 169.906C600.75 172.948 601.406 176.146 601.406 179.5C601.406 182.854 600.75 186.062 599.438 189.125C598.125 192.167 596.365 194.792 594.156 197C591.948 199.208 589.312 200.969 586.25 202.281C583.208 203.594 580.01 204.25 576.656 204.25C573.302 204.25 570.094 203.594 567.031 202.281C563.99 200.969 561.365 199.208 559.156 197C556.948 194.792 555.188 192.167 553.875 189.125ZM628.344 173.156C626.594 174.906 625.719 177.021 625.719 179.5C625.719 181.979 626.594 184.104 628.344 185.875C630.115 187.625 632.24 188.5 634.719 188.5C637.198 188.5 639.312 187.625 641.062 185.875C642.833 184.104 643.719 181.979 643.719 179.5C643.719 177.021 642.833 174.906 641.062 173.156C639.312 171.385 637.198 170.5 634.719 170.5C632.24 170.5 630.115 171.385 628.344 173.156ZM626.75 187.469C624.562 185.26 623.469 182.604 623.469 179.5C623.469 176.396 624.562 173.75 626.75 171.562C628.958 169.354 631.615 168.25 634.719 168.25C637.823 168.25 640.469 169.354 642.656 171.562C644.865 173.75 645.969 176.396 645.969 179.5C645.969 182.604 644.865 185.26 642.656 187.469C640.469 189.656 637.823 190.75 634.719 190.75C631.615 190.75 628.958 189.656 626.75 187.469ZM625.156 169.969C622.531 172.615 621.219 175.792 621.219 179.5C621.219 183.208 622.531 186.385 625.156 189.031C627.802 191.677 630.99 193 634.719 193C638.448 193 641.625 191.677 644.25 189.031C646.896 186.385 648.219 183.208 648.219 179.5C648.219 175.792 646.896 172.615 644.25 169.969C641.625 167.323 638.448 166 634.719 166C630.99 166 627.802 167.323 625.156 169.969ZM621.062 187.406C619.667 184.99 618.969 182.354 618.969 179.5C618.969 176.646 619.667 174.01 621.062 171.594C622.479 169.177 624.396 167.271 626.812 165.875C629.229 164.458 631.865 163.75 634.719 163.75C637.573 163.75 640.208 164.458 642.625 165.875C645.042 167.271 646.948 169.177 648.344 171.594C649.76 174.01 650.469 176.646 650.469 179.5C650.469 182.354 649.76 184.99 648.344 187.406C646.948 189.823 645.042 191.74 642.625 193.156C640.208 194.552 637.573 195.25 634.719 195.25C631.865 195.25 629.229 194.552 626.812 193.156C624.396 191.74 622.479 189.823 621.062 187.406ZM618.125 172.531C617.188 174.74 616.719 177.062 616.719 179.5C616.719 181.938 617.188 184.271 618.125 186.5C619.083 188.708 620.365 190.625 621.969 192.25C623.594 193.854 625.51 195.135 627.719 196.094C629.948 197.031 632.281 197.5 634.719 197.5C637.156 197.5 639.479 197.031 641.688 196.094C643.917 195.135 645.833 193.854 647.438 192.25C649.062 190.625 650.344 188.708 651.281 186.5C652.24 184.271 652.719 181.938 652.719 179.5C652.719 177.062 652.24 174.74 651.281 172.531C650.344 170.302 649.062 168.385 647.438 166.781C645.833 165.156 643.917 163.875 641.688 162.938C639.479 161.979 637.156 161.5 634.719 161.5C632.281 161.5 629.948 161.979 627.719 162.938C625.51 163.875 623.594 165.156 621.969 166.781C620.365 168.385 619.083 170.302 618.125 172.531ZM616.062 187.375C615 184.875 614.469 182.25 614.469 179.5C614.469 176.75 615 174.125 616.062 171.625C617.146 169.125 618.583 166.979 620.375 165.188C622.188 163.375 624.344 161.938 626.844 160.875C629.344 159.792 631.969 159.25 634.719 159.25C637.469 159.25 640.094 159.792 642.594 160.875C645.094 161.938 647.24 163.375 649.031 165.188C650.844 166.979 652.281 169.125 653.344 171.625C654.427 174.125 654.969 176.75 654.969 179.5C654.969 182.25 654.427 184.875 653.344 187.375C652.281 189.875 650.844 192.031 649.031 193.844C647.24 195.635 645.094 197.073 642.594 198.156C640.094 199.219 637.469 199.75 634.719 199.75C631.969 199.75 629.344 199.219 626.844 198.156C624.344 197.073 622.188 195.635 620.375 193.844C618.583 192.031 617.146 189.875 616.062 187.375ZM614 170.781C612.812 173.552 612.219 176.458 612.219 179.5C612.219 182.542 612.812 185.458 614 188.25C615.188 191.021 616.781 193.417 618.781 195.438C620.802 197.438 623.198 199.031 625.969 200.219C628.76 201.406 631.677 202 634.719 202C637.76 202 640.667 201.406 643.438 200.219C646.229 199.031 648.625 197.438 650.625 195.438C652.646 193.417 654.25 191.021 655.438 188.25C656.625 185.458 657.219 182.542 657.219 179.5C657.219 176.458 656.625 173.552 655.438 170.781C654.25 167.99 652.646 165.594 650.625 163.594C648.625 161.573 646.229 159.969 643.438 158.781C640.667 157.594 637.76 157 634.719 157C631.677 157 628.76 157.594 625.969 158.781C623.198 159.969 620.802 161.573 618.781 163.594C616.781 165.594 615.188 167.99 614 170.781ZM611.938 189.125C610.625 186.062 609.969 182.854 609.969 179.5C609.969 176.146 610.625 172.948 611.938 169.906C613.25 166.844 615.01 164.208 617.219 162C619.427 159.792 622.052 158.031 625.094 156.719C628.156 155.406 631.365 154.75 634.719 154.75C638.073 154.75 641.271 155.406 644.312 156.719C647.375 158.031 650.01 159.792 652.219 162C654.427 164.208 656.188 166.844 657.5 169.906C658.812 172.948 659.469 176.146 659.469 179.5C659.469 182.854 658.812 186.062 657.5 189.125C656.188 192.167 654.427 194.792 652.219 197C650.01 199.208 647.375 200.969 644.312 202.281C641.271 203.594 638.073 204.25 634.719 204.25C631.365 204.25 628.156 203.594 625.094 202.281C622.052 200.969 619.427 199.208 617.219 197C615.01 194.792 613.25 192.167 611.938 189.125ZM711.812 157L699.281 179.688L711.625 202H709.125L696.781 179.688L709.312 157H711.812ZM706.781 157L694.25 179.688L706.594 202H704.094L691.75 179.688L704.281 157H706.781ZM701.75 157L689.219 179.688L701.562 202H699.062L686.719 179.688L699.25 157H701.75ZM696.719 157L684.156 179.688L696.531 202H694.031L681.656 179.688L694.219 157H696.719ZM678.031 157V202H680.281V157H678.031ZM673.531 157V202H675.781V157H673.531ZM669.031 157V202H671.281V157H669.031ZM664.531 157V202H666.781V157H664.531ZM736.531 180.594H732.969C728.594 180.594 725.229 179.708 722.875 177.938C720.521 176.146 719.344 173.688 719.344 170.562C719.344 167.646 720.729 165.219 723.5 163.281C726.271 161.323 730.156 160.344 735.156 160.344C738.49 160.344 741.594 160.802 744.469 161.719C747.365 162.635 749.771 163.927 751.688 165.594L749.938 167C748.229 165.604 746.083 164.521 743.5 163.75C740.917 162.979 738.135 162.594 735.156 162.594C730.76 162.594 727.396 163.344 725.062 164.844C722.75 166.344 721.594 168.25 721.594 170.562C721.594 173.062 722.542 174.99 724.438 176.344C726.354 177.677 729.198 178.344 732.969 178.344H736.406C740.844 178.344 744.24 179.24 746.594 181.031C748.969 182.802 750.156 185.25 750.156 188.375C750.156 191.292 748.771 193.729 746 195.688C743.229 197.625 739.344 198.594 734.344 198.594C731.01 198.594 727.896 198.135 725 197.219C722.125 196.302 719.729 195.01 717.812 193.344L719.562 191.938C721.271 193.333 723.417 194.417 726 195.188C728.583 195.958 731.365 196.344 734.344 196.344C738.74 196.344 742.094 195.594 744.406 194.094C746.74 192.594 747.906 190.688 747.906 188.375C747.906 185.875 746.948 183.958 745.031 182.625C743.135 181.271 740.302 180.594 736.531 180.594ZM736.531 185.094H732.969C727.177 185.094 722.708 183.781 719.562 181.156C716.417 178.51 714.844 174.979 714.844 170.562C714.844 168.542 715.292 166.646 716.188 164.875C717.083 163.104 718.365 161.552 720.031 160.219C721.719 158.865 723.865 157.802 726.469 157.031C729.073 156.24 731.969 155.844 735.156 155.844C739.177 155.844 742.938 156.458 746.438 157.688C749.938 158.896 752.854 160.594 755.188 162.781L753.375 164.125C751.25 162.208 748.594 160.729 745.406 159.688C742.219 158.625 738.802 158.094 735.156 158.094C729.531 158.094 725.115 159.281 721.906 161.656C718.698 164.031 717.094 167 717.094 170.562C717.094 174.333 718.469 177.323 721.219 179.531C723.969 181.74 727.885 182.844 732.969 182.844H736.406C742.573 182.844 745.656 184.688 745.656 188.375C745.656 190.042 744.708 191.417 742.812 192.5C740.938 193.562 738.115 194.094 734.344 194.094C731.698 194.094 729.24 193.792 726.969 193.188C724.698 192.562 722.823 191.677 721.344 190.531L723.125 189.156C725.729 190.948 729.469 191.844 734.344 191.844C737.469 191.844 739.76 191.521 741.219 190.875C742.677 190.229 743.406 189.396 743.406 188.375C743.406 187.188 742.896 186.344 741.875 185.844C740.854 185.344 739.073 185.094 736.531 185.094ZM736.531 176.094H732.969C726.885 176.094 723.844 174.25 723.844 170.562C723.844 168.896 724.781 167.531 726.656 166.469C728.552 165.385 731.385 164.844 735.156 164.844C737.802 164.844 740.26 165.156 742.531 165.781C744.802 166.385 746.677 167.26 748.156 168.406L746.375 169.781C743.771 167.99 740.031 167.094 735.156 167.094C732.031 167.094 729.74 167.417 728.281 168.062C726.823 168.708 726.094 169.542 726.094 170.562C726.094 171.75 726.604 172.594 727.625 173.094C728.646 173.594 730.427 173.844 732.969 173.844H736.531C742.323 173.844 746.792 175.167 749.938 177.812C753.083 180.438 754.656 183.958 754.656 188.375C754.656 190.396 754.208 192.292 753.312 194.062C752.417 195.833 751.125 197.396 749.438 198.75C747.771 200.083 745.635 201.146 743.031 201.938C740.427 202.708 737.531 203.094 734.344 203.094C730.323 203.094 726.562 202.49 723.062 201.281C719.562 200.052 716.646 198.344 714.312 196.156L716.125 194.812C718.25 196.729 720.906 198.219 724.094 199.281C727.281 200.323 730.698 200.844 734.344 200.844C739.969 200.844 744.385 199.656 747.594 197.281C750.802 194.906 752.406 191.938 752.406 188.375C752.406 184.604 751.031 181.615 748.281 179.406C745.531 177.198 741.615 176.094 736.531 176.094ZM767.562 169.469H769.812V202H767.562V169.469ZM758.562 159.25V157H792.312V159.25H758.562ZM758.562 163.75V161.5H792.312V163.75H758.562ZM758.562 168.25V166H792.312V168.25H758.562ZM781.062 169.469H783.312V202H781.062V169.469ZM776.562 169.469H778.812V202H776.562V169.469ZM772.062 169.469H774.312V202H772.062V169.469ZM814.469 173.156C812.719 174.906 811.844 177.021 811.844 179.5C811.844 181.979 812.719 184.104 814.469 185.875C816.24 187.625 818.365 188.5 820.844 188.5C823.323 188.5 825.438 187.625 827.188 185.875C828.958 184.104 829.844 181.979 829.844 179.5C829.844 177.021 828.958 174.906 827.188 173.156C825.438 171.385 823.323 170.5 820.844 170.5C818.365 170.5 816.24 171.385 814.469 173.156ZM812.875 187.469C810.688 185.26 809.594 182.604 809.594 179.5C809.594 176.396 810.688 173.75 812.875 171.562C815.083 169.354 817.74 168.25 820.844 168.25C823.948 168.25 826.594 169.354 828.781 171.562C830.99 173.75 832.094 176.396 832.094 179.5C832.094 182.604 830.99 185.26 828.781 187.469C826.594 189.656 823.948 190.75 820.844 190.75C817.74 190.75 815.083 189.656 812.875 187.469ZM811.281 169.969C808.656 172.615 807.344 175.792 807.344 179.5C807.344 183.208 808.656 186.385 811.281 189.031C813.927 191.677 817.115 193 820.844 193C824.573 193 827.75 191.677 830.375 189.031C833.021 186.385 834.344 183.208 834.344 179.5C834.344 175.792 833.021 172.615 830.375 169.969C827.75 167.323 824.573 166 820.844 166C817.115 166 813.927 167.323 811.281 169.969ZM807.188 187.406C805.792 184.99 805.094 182.354 805.094 179.5C805.094 176.646 805.792 174.01 807.188 171.594C808.604 169.177 810.521 167.271 812.938 165.875C815.354 164.458 817.99 163.75 820.844 163.75C823.698 163.75 826.333 164.458 828.75 165.875C831.167 167.271 833.073 169.177 834.469 171.594C835.885 174.01 836.594 176.646 836.594 179.5C836.594 182.354 835.885 184.99 834.469 187.406C833.073 189.823 831.167 191.74 828.75 193.156C826.333 194.552 823.698 195.25 820.844 195.25C817.99 195.25 815.354 194.552 812.938 193.156C810.521 191.74 808.604 189.823 807.188 187.406ZM804.25 172.531C803.312 174.74 802.844 177.062 802.844 179.5C802.844 181.938 803.312 184.271 804.25 186.5C805.208 188.708 806.49 190.625 808.094 192.25C809.719 193.854 811.635 195.135 813.844 196.094C816.073 197.031 818.406 197.5 820.844 197.5C823.281 197.5 825.604 197.031 827.812 196.094C830.042 195.135 831.958 193.854 833.562 192.25C835.188 190.625 836.469 188.708 837.406 186.5C838.365 184.271 838.844 181.938 838.844 179.5C838.844 177.062 838.365 174.74 837.406 172.531C836.469 170.302 835.188 168.385 833.562 166.781C831.958 165.156 830.042 163.875 827.812 162.938C825.604 161.979 823.281 161.5 820.844 161.5C818.406 161.5 816.073 161.979 813.844 162.938C811.635 163.875 809.719 165.156 808.094 166.781C806.49 168.385 805.208 170.302 804.25 172.531ZM802.188 187.375C801.125 184.875 800.594 182.25 800.594 179.5C800.594 176.75 801.125 174.125 802.188 171.625C803.271 169.125 804.708 166.979 806.5 165.188C808.312 163.375 810.469 161.938 812.969 160.875C815.469 159.792 818.094 159.25 820.844 159.25C823.594 159.25 826.219 159.792 828.719 160.875C831.219 161.938 833.365 163.375 835.156 165.188C836.969 166.979 838.406 169.125 839.469 171.625C840.552 174.125 841.094 176.75 841.094 179.5C841.094 182.25 840.552 184.875 839.469 187.375C838.406 189.875 836.969 192.031 835.156 193.844C833.365 195.635 831.219 197.073 828.719 198.156C826.219 199.219 823.594 199.75 820.844 199.75C818.094 199.75 815.469 199.219 812.969 198.156C810.469 197.073 808.312 195.635 806.5 193.844C804.708 192.031 803.271 189.875 802.188 187.375ZM800.125 170.781C798.938 173.552 798.344 176.458 798.344 179.5C798.344 182.542 798.938 185.458 800.125 188.25C801.312 191.021 802.906 193.417 804.906 195.438C806.927 197.438 809.323 199.031 812.094 200.219C814.885 201.406 817.802 202 820.844 202C823.885 202 826.792 201.406 829.562 200.219C832.354 199.031 834.75 197.438 836.75 195.438C838.771 193.417 840.375 191.021 841.562 188.25C842.75 185.458 843.344 182.542 843.344 179.5C843.344 176.458 842.75 173.552 841.562 170.781C840.375 167.99 838.771 165.594 836.75 163.594C834.75 161.573 832.354 159.969 829.562 158.781C826.792 157.594 823.885 157 820.844 157C817.802 157 814.885 157.594 812.094 158.781C809.323 159.969 806.927 161.573 804.906 163.594C802.906 165.594 801.312 167.99 800.125 170.781ZM798.062 189.125C796.75 186.062 796.094 182.854 796.094 179.5C796.094 176.146 796.75 172.948 798.062 169.906C799.375 166.844 801.135 164.208 803.344 162C805.552 159.792 808.177 158.031 811.219 156.719C814.281 155.406 817.49 154.75 820.844 154.75C824.198 154.75 827.396 155.406 830.438 156.719C833.5 158.031 836.135 159.792 838.344 162C840.552 164.208 842.312 166.844 843.625 169.906C844.938 172.948 845.594 176.146 845.594 179.5C845.594 182.854 844.938 186.062 843.625 189.125C842.312 192.167 840.552 194.792 838.344 197C836.135 199.208 833.5 200.969 830.438 202.281C827.396 203.594 824.198 204.25 820.844 204.25C817.49 204.25 814.281 203.594 811.219 202.281C808.177 200.969 805.552 199.208 803.344 197C801.135 194.792 799.375 192.167 798.062 189.125ZM867.656 180.5H881.219C883.01 180.5 884.531 179.938 885.781 178.812C887.031 177.688 887.656 176.104 887.656 174.062C887.656 172.562 887 171.219 885.688 170.031C884.396 168.844 882.906 168.25 881.219 168.25H861.906V202H859.656V166H881.219C883.531 166 885.552 166.812 887.281 168.438C889.031 170.062 889.906 171.938 889.906 174.062C889.906 176.708 889.062 178.823 887.375 180.406C885.688 181.969 883.635 182.75 881.219 182.75H867.656V180.5ZM867.656 185H881.219C884.219 185 886.792 183.979 888.938 181.938C891.083 179.896 892.156 177.271 892.156 174.062C892.156 171.333 891.062 168.938 888.875 166.875C886.688 164.792 884.135 163.75 881.219 163.75H857.406V202H855.156V161.5H881.219C884.76 161.5 887.844 162.76 890.469 165.281C893.094 167.781 894.406 170.708 894.406 174.062C894.406 177.812 893.104 180.948 890.5 183.469C887.917 185.99 884.823 187.25 881.219 187.25H867.656V185ZM867.656 189.5H881.219C883.99 189.5 886.552 188.833 888.906 187.5C891.26 186.167 893.135 184.312 894.531 181.938C895.948 179.562 896.656 176.938 896.656 174.062C896.656 171.458 895.958 169.021 894.562 166.75C893.167 164.458 891.271 162.635 888.875 161.281C886.5 159.927 883.948 159.25 881.219 159.25H852.906V202H850.656V157H881.219C883.573 157 885.833 157.469 888 158.406C890.188 159.323 892.073 160.552 893.656 162.094C895.24 163.615 896.51 165.427 897.469 167.531C898.427 169.635 898.906 171.812 898.906 174.062C898.906 177.708 898.073 180.896 896.406 183.625C894.74 186.333 892.5 188.396 889.688 189.812L894.406 202H892L887.531 190.719C886.969 190.906 886.312 191.094 885.562 191.281L889.781 202H887.375L883.25 191.656C882.604 191.719 881.927 191.75 881.219 191.75L885.188 202H882.812L878.875 191.75H876.844L880.625 202H878.25L874.438 191.75H867.656V189.5ZM866.406 202H864.156V170.5H881.219C882.385 170.5 883.375 170.854 884.188 171.562C885 172.25 885.406 173.083 885.406 174.062C885.406 176.854 884.01 178.25 881.219 178.25H867.656V176H881.219C882.51 176 883.156 175.354 883.156 174.062C883.156 173.708 882.958 173.406 882.562 173.156C882.188 172.885 881.74 172.75 881.219 172.75H866.406V202ZM915.156 202H912.906V157H915.156V202ZM910.656 202H908.406V157H910.656V202ZM906.156 202H903.906V157H906.156V202ZM919.656 190.75H941.188V193H919.656V195.25H941.188V197.5H919.656V199.75H941.188V202H917.406V157H941.188V159.25H919.656V161.5H941.188V163.75H919.656V166H941.188V168.25H919.656V173.844H939.938V176.094H919.656V178.344H939.938V180.594H919.656V182.844H939.938V185.094H919.656V190.75Z" fill="#C07E22"/>
</g>
<defs>
<clipPath id="clip0_1_4">
<rect width="1440" height="1024" fill="white"/>
</clipPath>
</defs>
</svg>
