<svg width="1440" height="1024" viewBox="0 0 1440 1024" fill="none" xmlns="http://www.w3.org/2000/svg">
<g clip-path="url(#clip0_1_5)">
<rect width="1440" height="1024" fill="#E2D9BC"/>
<line x1="93.5" y1="946" x2="93.5" y2="1024" stroke="#C07E22" stroke-width="3"/>
<line x1="233.5" y1="946" x2="233.5" y2="1024" stroke="#C07E22" stroke-width="3"/>
<line x1="373.5" y1="946" x2="373.5" y2="1024" stroke="#C07E22" stroke-width="3"/>
<line x1="1073.5" y1="946" x2="1073.5" y2="1024" stroke="#C07E22" stroke-width="3"/>
<line x1="1213.5" y1="946" x2="1213.5" y2="1024" stroke="#C07E22" stroke-width="3"/>
<line x1="1353.5" y1="946" x2="1353.5" y2="1024" stroke="#C07E22" stroke-width="3"/>
<rect y="931.982" width="1440" height="14" fill="#C07E22"/>
<line y1="-0.5" x2="1440" y2="-0.5" transform="matrix(1 -0.000681273 0.00070787 1 0 932.963)" stroke="#213A2A"/>
<line y1="-0.5" x2="1440" y2="-0.5" transform="matrix(1 -0.000681273 0.00070787 1 0 883.911)" stroke="#213A2A"/>
<line y1="-0.5" x2="1440" y2="-0.5" transform="matrix(1 -0.000681273 0.00070787 1 0 834.86)" stroke="#213A2A"/>
<line y1="-0.5" x2="1440" y2="-0.5" transform="matrix(1 -0.000681273 0.00070787 1 0 785.808)" stroke="#213A2A"/>
<line y1="-0.5" x2="1440" y2="-0.5" transform="matrix(1 -0.000681273 0.00070787 1 0 736.756)" stroke="#213A2A"/>
<line y1="-0.5" x2="1440" y2="-0.5" transform="matrix(1 -0.000681273 0.00070787 1 0 687.705)" stroke="#213A2A"/>
<line y1="-0.5" x2="1440" y2="-0.5" transform="matrix(1 -0.000681273 0.00070787 1 0 638.653)" stroke="#213A2A"/>
<line y1="-0.5" x2="1440" y2="-0.5" transform="matrix(1 -0.000681273 0.00070787 1 0 589.601)" stroke="#213A2A"/>
<line y1="-0.5" x2="1440" y2="-0.5" transform="matrix(1 -0.000681273 0.00070787 1 0 540.55)" stroke="#213A2A"/>
<line y1="-0.5" x2="1440" y2="-0.5" transform="matrix(1 -0.000681273 0.00070787 1 0 491.498)" stroke="#213A2A"/>
<line y1="-0.5" x2="1440" y2="-0.5" transform="matrix(1 -0.000681273 0.00070787 1 0 442.446)" stroke="#213A2A"/>
<line y1="-0.5" x2="1440" y2="-0.5" transform="matrix(1 -0.000681273 0.00070787 1 0 393.395)" stroke="#213A2A"/>
<line y1="-0.5" x2="1440" y2="-0.5" transform="matrix(1 -0.000681273 0.00070787 1 0 344.343)" stroke="#213A2A"/>
<line y1="-0.5" x2="1440" y2="-0.5" transform="matrix(1 -0.000681273 0.00070787 1 0 295.291)" stroke="#213A2A"/>
<line y1="-0.5" x2="1440" y2="-0.5" transform="matrix(1 -0.000681273 0.00070787 1 0 246.24)" stroke="#213A2A"/>
<line y1="-0.5" x2="1440" y2="-0.5" transform="matrix(1 -0.000681273 0.00070787 1 0 197.188)" stroke="#213A2A"/>
<line y1="-0.5" x2="1440" y2="-0.5" transform="matrix(1 -0.000681273 0.00070787 1 0 148.136)" stroke="#213A2A"/>
<line y1="-0.5" x2="1440" y2="-0.5" transform="matrix(1 -0.000681273 0.00070787 1 0 99.0845)" stroke="#213A2A"/>
<line y1="-0.5" x2="1440" y2="-0.5" transform="matrix(1 -0.000681141 0.000708008 1 0 50.0325)" stroke="#213A2A"/>
<line x1="30.5" y1="883.911" x2="30.5" y2="932.963" stroke="#213A2A"/>
<line x1="30.5" y1="785.808" x2="30.5" y2="834.86" stroke="#213A2A"/>
<line x1="30.5" y1="687.705" x2="30.5" y2="736.756" stroke="#213A2A"/>
<line x1="30.5" y1="589.601" x2="30.5" y2="638.653" stroke="#213A2A"/>
<line x1="30.5" y1="491.498" x2="30.5" y2="540.55" stroke="#213A2A"/>
<line x1="30.5" y1="393.395" x2="30.5" y2="442.446" stroke="#213A2A"/>
<line x1="30.5" y1="295.291" x2="30.5" y2="344.343" stroke="#213A2A"/>
<line x1="30.5" y1="197.188" x2="30.5" y2="246.239" stroke="#213A2A"/>
<line x1="87.5" y1="834.86" x2="87.5" y2="883.911" stroke="#213A2A"/>
<line x1="87.5" y1="735.775" x2="87.5" y2="784.827" stroke="#213A2A"/>
<line x1="87.5" y1="638.653" x2="87.5" y2="687.705" stroke="#213A2A"/>
<line x1="87.5" y1="540.55" x2="87.5" y2="589.601" stroke="#213A2A"/>
<line x1="87.5" y1="442.446" x2="87.5" y2="491.498" stroke="#213A2A"/>
<line x1="87.5" y1="344.343" x2="87.5" y2="393.395" stroke="#213A2A"/>
<line x1="87.5" y1="245.258" x2="87.5" y2="294.31" stroke="#213A2A"/>
<line x1="87.5" y1="147.155" x2="87.5" y2="196.207" stroke="#213A2A"/>
<line x1="1352.5" y1="833.879" x2="1352.5" y2="882.93" stroke="#213A2A"/>
<line x1="1352.5" y1="735.775" x2="1352.5" y2="784.827" stroke="#213A2A"/>
<line x1="1352.5" y1="637.672" x2="1352.5" y2="686.724" stroke="#213A2A"/>
<line x1="1352.5" y1="539.569" x2="1352.5" y2="588.62" stroke="#213A2A"/>
<line x1="1352.5" y1="442.446" x2="1352.5" y2="490.517" stroke="#213A2A"/>
<line x1="1352.5" y1="342.381" x2="1352.5" y2="391.433" stroke="#213A2A"/>
<line x1="1352.5" y1="245.258" x2="1352.5" y2="294.31" stroke="#213A2A"/>
<line x1="1352.5" y1="147.155" x2="1352.5" y2="196.207" stroke="#213A2A"/>
<line y1="-0.5" x2="49.0517" y2="-0.5" transform="matrix(0 1 1 0 1410 882.93)" stroke="#213A2A"/>
<line y1="-0.5" x2="49.0517" y2="-0.5" transform="matrix(0 1 1 0 1410 784.827)" stroke="#213A2A"/>
<line y1="-0.5" x2="49.0517" y2="-0.5" transform="matrix(0 1 1 0 1410 686.724)" stroke="#213A2A"/>
<line y1="-0.5" x2="49.0517" y2="-0.5" transform="matrix(0 1 1 0 1410 588.62)" stroke="#213A2A"/>
<line y1="-0.5" x2="49.0517" y2="-0.5" transform="matrix(0 1 1 0 1410 490.517)" stroke="#213A2A"/>
<line y1="-0.5" x2="49.0517" y2="-0.5" transform="matrix(0 1 1 0 1410 392.413)" stroke="#213A2A"/>
<line y1="-0.5" x2="49.0517" y2="-0.5" transform="matrix(0 1 1 0 1410 294.31)" stroke="#213A2A"/>
<line y1="-0.5" x2="49.0517" y2="-0.5" transform="matrix(0 1 1 0 1410 196.207)" stroke="#213A2A"/>
<line x1="30.5" x2="30.5" y2="49.0517" stroke="#213A2A"/>
<line x1="145.5" x2="145.5" y2="49.0517" stroke="#213A2A"/>
<line x1="260.5" x2="260.5" y2="49.0517" stroke="#213A2A"/>
<line x1="375.5" x2="375.5" y2="49.0517" stroke="#213A2A"/>
<line x1="490.5" x2="490.5" y2="49.0517" stroke="#213A2A"/>
<line x1="605.5" x2="605.5" y2="49.0517" stroke="#213A2A"/>
<line x1="720.5" x2="720.5" y2="49.0517" stroke="#213A2A"/>
<line x1="835.5" x2="835.5" y2="49.0517" stroke="#213A2A"/>
<line x1="950.5" x2="950.5" y2="49.0517" stroke="#213A2A"/>
<line x1="1065.5" x2="1065.5" y2="49.0517" stroke="#213A2A"/>
<line x1="1180.5" x2="1180.5" y2="49.0517" stroke="#213A2A"/>
<line x1="1295.5" x2="1295.5" y2="49.0517" stroke="#213A2A"/>
<line x1="1410.5" x2="1410.5" y2="49.0517" stroke="#213A2A"/>
<line x1="87.5" y1="49.0516" x2="87.5" y2="98.1033" stroke="#213A2A"/>
<line x1="202.5" y1="49.0516" x2="202.5" y2="98.1033" stroke="#213A2A"/>
<line x1="317.5" y1="49.0516" x2="317.5" y2="98.1033" stroke="#213A2A"/>
<line x1="432.5" y1="49.0516" x2="432.5" y2="98.1033" stroke="#213A2A"/>
<line x1="547.5" y1="49.0516" x2="547.5" y2="98.1033" stroke="#213A2A"/>
<line x1="662.5" y1="49.0516" x2="662.5" y2="98.1033" stroke="#213A2A"/>
<line x1="777.5" y1="49.0516" x2="777.5" y2="98.1033" stroke="#213A2A"/>
<line x1="892.5" y1="49.0516" x2="892.5" y2="98.1033" stroke="#213A2A"/>
<line x1="1007.5" y1="49.0516" x2="1007.5" y2="98.1033" stroke="#213A2A"/>
<line x1="1122.5" y1="49.0516" x2="1122.5" y2="98.1033" stroke="#213A2A"/>
<line x1="1237.5" y1="49.0516" x2="1237.5" y2="98.1033" stroke="#213A2A"/>
<line x1="1352.5" y1="49.0516" x2="1352.5" y2="98.1033" stroke="#213A2A"/>
<line x1="30.5" y1="98.1033" x2="30.5" y2="147.155" stroke="#213A2A"/>
<line x1="145.5" y1="98.1033" x2="145.5" y2="147.155" stroke="#213A2A"/>
<line x1="260.5" y1="98.1033" x2="260.5" y2="147.155" stroke="#213A2A"/>
<line x1="375.5" y1="98.1033" x2="375.5" y2="147.155" stroke="#213A2A"/>
<line x1="490.5" y1="98.1033" x2="490.5" y2="147.155" stroke="#213A2A"/>
<line x1="605.5" y1="98.1033" x2="605.5" y2="147.155" stroke="#213A2A"/>
<line x1="720.5" y1="98.1033" x2="720.5" y2="147.155" stroke="#213A2A"/>
<line x1="835.5" y1="98.1033" x2="835.5" y2="147.155" stroke="#213A2A"/>
<line x1="950.5" y1="98.1033" x2="950.5" y2="147.155" stroke="#213A2A"/>
<line x1="1065.5" y1="98.1033" x2="1065.5" y2="147.155" stroke="#213A2A"/>
<line x1="1180.5" y1="98.1033" x2="1180.5" y2="147.155" stroke="#213A2A"/>
<line x1="1295.5" y1="98.1033" x2="1295.5" y2="147.155" stroke="#213A2A"/>
<line x1="1410.5" y1="98.1033" x2="1410.5" y2="147.155" stroke="#213A2A"/>
<rect x="110" y="97" width="1220" height="835" rx="50" fill="#213A2A"/>
<rect x="552.5" y="904.5" width="334" height="40" rx="4.5" fill="#47423B" stroke="#1C1B19" stroke-linejoin="round"/>
<rect x="507.5" y="944.5" width="424" height="40" rx="4.5" fill="#47423B" stroke="#1C1B19" stroke-linejoin="round"/>
<rect x="461.5" y="983.5" width="514" height="40" rx="4.5" fill="#47423B" stroke="#1C1B19" stroke-linejoin="round"/>
<rect x="135" y="124" width="1170" height="780" rx="30" fill="#FFF5D2"/>
<g filter="url(#filter0_d_1_5)">
<path d="M1305 229C1305 248.882 1288.71 265 1268.62 265C1248.53 265 1232.25 248.882 1232.25 229C1232.25 229 1248.53 229 1268.62 229C1288.71 229 1305 229 1305 229Z" fill="#E2D9BC"/>
<path d="M1303.99 230C1303.45 248.858 1287.83 264 1268.62 264C1249.42 264 1233.8 248.858 1233.26 230L1235.11 230L1242.9 230L1268.62 230L1294.35 230L1302.14 230L1303.99 230Z" stroke="#213A2A" stroke-width="2"/>
</g>
<g filter="url(#filter1_d_1_5)">
<path d="M1232.25 229C1232.25 248.882 1215.74 265 1195.37 265C1175.01 265 1158.5 248.882 1158.5 229C1158.5 229 1175.01 229 1195.37 229C1215.74 229 1232.25 229 1232.25 229Z" fill="#E2D9BC"/>
<path d="M1231.23 230C1230.69 248.846 1214.87 264 1195.37 264C1175.88 264 1160.06 248.846 1159.52 230L1161.4 230L1169.3 230L1195.37 230L1221.45 230L1229.35 230L1231.23 230Z" stroke="#213A2A" stroke-width="2"/>
</g>
<g filter="url(#filter2_d_1_5)">
<path d="M1158.5 229C1158.5 248.882 1142.21 265 1122.13 265C1102.04 265 1085.75 248.882 1085.75 229C1085.75 229 1102.04 229 1122.13 229C1142.21 229 1158.5 229 1158.5 229Z" fill="#E2D9BC"/>
<path d="M1157.49 230C1156.95 248.858 1141.33 264 1122.13 264C1102.92 264 1087.3 248.858 1086.76 230L1088.61 230L1096.4 230L1122.13 230L1147.85 230L1155.64 230L1157.49 230Z" stroke="#213A2A" stroke-width="2"/>
</g>
<g filter="url(#filter3_d_1_5)">
<path d="M1085.75 229C1085.75 248.882 1069.24 265 1048.88 265C1028.51 265 1012 248.882 1012 229C1012 229 1028.51 229 1048.88 229C1069.24 229 1085.75 229 1085.75 229Z" fill="#E2D9BC"/>
<path d="M1084.74 230C1084.19 248.846 1068.37 264 1048.88 264C1029.38 264 1013.56 248.846 1013.02 230L1014.9 230L1022.8 230L1048.88 230L1074.95 230L1082.85 230L1084.74 230Z" stroke="#213A2A" stroke-width="2"/>
</g>
<g filter="url(#filter4_d_1_5)">
<path d="M939.25 229C939.25 248.882 922.964 265 902.875 265C882.785 265 866.499 248.882 866.499 229C866.499 229 882.785 229 902.875 229C922.964 229 939.25 229 939.25 229Z" fill="#E2D9BC"/>
<path d="M938.236 230C937.701 248.858 922.084 264 902.875 264C883.666 264 868.048 248.858 867.513 230L869.358 230L877.153 230L902.875 230L928.596 230L936.392 230L938.236 230Z" stroke="#213A2A" stroke-width="2"/>
</g>
<g filter="url(#filter5_d_1_5)">
<path d="M1012 229C1012 248.882 995.716 265 975.626 265C955.536 265 939.25 248.882 939.25 229C939.25 229 955.536 229 975.626 229C995.716 229 1012 229 1012 229Z" fill="#E2D9BC"/>
<path d="M1010.99 230C1010.45 248.858 994.835 264 975.626 264C956.417 264 940.8 248.858 940.265 230L942.109 230L949.905 230L975.626 230L1001.35 230L1009.14 230L1010.99 230Z" stroke="#213A2A" stroke-width="2"/>
</g>
<g filter="url(#filter6_d_1_5)">
<path d="M866.499 229C866.499 248.882 849.99 265 829.625 265C809.26 265 792.751 248.882 792.751 229C792.751 229 809.26 229 829.625 229C849.99 229 866.499 229 866.499 229Z" fill="#E2D9BC"/>
<path d="M865.485 230C864.942 248.846 849.117 264 829.625 264C810.133 264 794.308 248.846 793.766 230L795.649 230L803.551 230L829.625 230L855.699 230L863.601 230L865.485 230Z" stroke="#213A2A" stroke-width="2"/>
</g>
<g filter="url(#filter7_d_1_5)">
<path d="M720 229C720 248.882 703.714 265 683.624 265C663.535 265 647.249 248.882 647.249 229C647.249 229 663.535 229 683.624 229C703.714 229 720 229 720 229Z" fill="#E2D9BC"/>
<path d="M718.986 230C718.451 248.858 702.833 264 683.624 264C664.415 264 648.798 248.858 648.263 230L650.107 230L657.903 230L683.624 230L709.346 230L717.141 230L718.986 230Z" stroke="#213A2A" stroke-width="2"/>
</g>
<g filter="url(#filter8_d_1_5)">
<path d="M792.751 229C792.751 248.882 776.465 265 756.376 265C736.286 265 720 248.882 720 229C720 229 736.286 229 756.376 229C776.465 229 792.751 229 792.751 229Z" fill="#E2D9BC"/>
<path d="M791.737 230C791.202 248.858 775.585 264 756.376 264C737.167 264 721.549 248.858 721.014 230L722.859 230L730.654 230L756.376 230L782.097 230L789.893 230L791.737 230Z" stroke="#213A2A" stroke-width="2"/>
</g>
<g filter="url(#filter9_d_1_5)">
<path d="M647.249 229C647.249 248.882 630.74 265 610.375 265C590.01 265 573.501 248.882 573.501 229C573.501 229 590.01 229 610.375 229C630.74 229 647.249 229 647.249 229Z" fill="#E2D9BC"/>
<path d="M646.234 230C645.692 248.846 629.867 264 610.375 264C590.883 264 575.058 248.846 574.515 230L576.399 230L584.301 230L610.375 230L636.449 230L644.351 230L646.234 230Z" stroke="#213A2A" stroke-width="2"/>
</g>
<g filter="url(#filter10_d_1_5)">
<path d="M500.75 229C500.75 248.882 484.241 265 463.876 265C443.511 265 427.002 248.882 427.002 229C427.002 229 443.511 229 463.876 229C484.241 229 500.75 229 500.75 229Z" fill="#E2D9BC"/>
<path d="M499.735 230C499.193 248.846 483.367 264 463.876 264C444.384 264 428.558 248.846 428.016 230L429.899 230L437.802 230L463.876 230L489.949 230L497.852 230L499.735 230Z" stroke="#213A2A" stroke-width="2"/>
</g>
<g filter="url(#filter11_d_1_5)">
<path d="M573.501 229C573.501 248.882 557.215 265 537.125 265C517.035 265 500.75 248.882 500.75 229C500.75 229 517.035 229 537.125 229C557.215 229 573.501 229 573.501 229Z" fill="#E2D9BC"/>
<path d="M572.487 230C571.952 248.858 556.334 264 537.125 264C517.916 264 502.299 248.858 501.764 230L503.608 230L511.404 230L537.125 230L562.847 230L570.642 230L572.487 230Z" stroke="#213A2A" stroke-width="2"/>
</g>
<g filter="url(#filter12_d_1_5)">
<path d="M427.002 229C427.002 248.882 410.716 265 390.626 265C370.536 265 354.25 248.882 354.25 229C354.25 229 370.536 229 390.626 229C410.716 229 427.002 229 427.002 229Z" fill="#E2D9BC"/>
<path d="M425.988 230C425.453 248.858 409.835 264 390.626 264C371.417 264 355.8 248.858 355.265 230L357.109 230L364.905 230L390.626 230L416.348 230L424.143 230L425.988 230Z" stroke="#213A2A" stroke-width="2"/>
</g>
<g filter="url(#filter13_d_1_5)">
<path d="M354.25 229C354.25 248.882 337.964 265 317.875 265C297.785 265 281.499 248.882 281.499 229C281.499 229 297.785 229 317.875 229C337.964 229 354.25 229 354.25 229Z" fill="#E2D9BC"/>
<path d="M353.236 230C352.701 248.858 337.084 264 317.875 264C298.666 264 283.048 248.858 282.513 230L284.358 230L292.153 230L317.875 230L343.596 230L351.392 230L353.236 230Z" stroke="#213A2A" stroke-width="2"/>
</g>
<g filter="url(#filter14_d_1_5)">
<path d="M281.499 229C281.499 248.882 264.99 265 244.625 265C224.26 265 207.751 248.882 207.751 229C207.751 229 224.26 229 244.625 229C264.99 229 281.499 229 281.499 229Z" fill="#E2D9BC"/>
<path d="M280.485 230C279.942 248.846 264.117 264 244.625 264C225.133 264 209.308 248.846 208.766 230L210.649 230L218.551 230L244.625 230L270.699 230L278.601 230L280.485 230Z" stroke="#213A2A" stroke-width="2"/>
</g>
<g filter="url(#filter15_d_1_5)">
<path d="M207.751 229C207.751 248.882 191.465 265 171.376 265C151.286 265 135 248.882 135 229C135 229 151.286 229 171.376 229C191.465 229 207.751 229 207.751 229Z" fill="#E2D9BC"/>
<path d="M206.737 230C206.202 248.858 190.585 264 171.376 264C152.167 264 136.549 248.858 136.014 230L137.859 230L145.654 230L171.376 230L197.097 230L204.893 230L206.737 230Z" stroke="#213A2A" stroke-width="2"/>
</g>
<mask id="path-134-outside-1_1_5" maskUnits="userSpaceOnUse" x="135" y="124" width="1170" height="107" fill="black">
<rect fill="white" x="135" y="124" width="1170" height="107"/>
<path d="M135 154C135 137.431 148.431 124 165 124H1275C1291.57 124 1305 137.431 1305 154V229H135V154Z"/>
</mask>
<path d="M135 154C135 137.431 148.431 124 165 124H1275C1291.57 124 1305 137.431 1305 154V229H135V154Z" fill="#E2D9BC"/>
<path d="M135 124H1305H135ZM1305 231H135V227H1305V231ZM135 229V124V229ZM1305 124V229V124Z" fill="#213A2A" mask="url(#path-134-outside-1_1_5)"/>
<path d="M534.281 182.969C534.281 182.156 534.031 181.615 533.531 181.344C533.052 181.073 532.344 180.938 531.406 180.938H516.906V178.688H531.406C534.823 178.688 536.531 180.115 536.531 182.969C536.531 184.573 536.062 185.729 535.125 186.438C534.188 187.146 532.948 187.5 531.406 187.5H516.906V185.25H531.406C533.323 185.25 534.281 184.49 534.281 182.969ZM515.656 201H513.406V162.75H531.406C532.823 162.75 534.031 163.188 535.031 164.062C536.031 164.917 536.531 165.99 536.531 167.281C536.531 168.99 536.062 170.229 535.125 171C534.188 171.75 532.948 172.125 531.406 172.125H516.906V169.875H531.406C533.323 169.875 534.281 169.01 534.281 167.281C534.281 166.573 534.01 166.021 533.469 165.625C532.927 165.208 532.24 165 531.406 165H515.656V201ZM516.906 174.375H531.406C533.469 174.375 535.208 173.76 536.625 172.531C538.062 171.281 538.781 169.531 538.781 167.281C538.781 165.469 538.031 163.885 536.531 162.531C535.052 161.177 533.344 160.5 531.406 160.5H511.156V201H508.906V158.25H531.406C533.969 158.25 536.208 159.156 538.125 160.969C540.062 162.76 541.031 164.865 541.031 167.281C541.031 169.177 540.583 170.833 539.688 172.25C538.812 173.667 537.625 174.76 536.125 175.531C539.396 176.698 541.031 179.073 541.031 182.656C541.031 185.49 540.094 187.76 538.219 189.469C536.344 191.156 534.073 192 531.406 192H516.906V189.75H531.406C533.469 189.75 535.208 189.135 536.625 187.906C538.062 186.656 538.781 184.906 538.781 182.656C538.781 181.135 538.24 179.792 537.156 178.625C536.073 177.458 534.479 176.781 532.375 176.594C532.167 176.615 531.844 176.625 531.406 176.625H516.906V174.375ZM545.531 167.281C545.531 170.198 544.5 172.833 542.438 175.188C544.5 177.479 545.531 179.969 545.531 182.656C545.531 185.26 544.875 187.635 543.562 189.781C542.271 191.906 540.542 193.562 538.375 194.75C536.229 195.917 533.906 196.5 531.406 196.5H516.906V194.25H531.406C534.656 194.25 537.448 193.167 539.781 191C542.115 188.812 543.281 186.031 543.281 182.656C543.281 181.448 542.969 180.115 542.344 178.656C541.74 177.177 540.896 176.052 539.812 175.281C542.125 173.115 543.281 170.448 543.281 167.281C543.281 164.24 542.094 161.604 539.719 159.375C537.344 157.125 534.573 156 531.406 156H506.656V201H504.406V153.75H531.406C533.885 153.75 536.208 154.365 538.375 155.594C540.562 156.802 542.302 158.458 543.594 160.562C544.885 162.646 545.531 164.885 545.531 167.281ZM545 175.312C546.854 172.833 547.781 170.156 547.781 167.281C547.781 164.469 547.031 161.854 545.531 159.438C544.052 157 542.052 155.073 539.531 153.656C537.01 152.219 534.302 151.5 531.406 151.5H502.156V201H499.906V149.25H531.406C534.698 149.25 537.771 150.062 540.625 151.688C543.5 153.312 545.781 155.521 547.469 158.312C549.177 161.083 550.031 164.073 550.031 167.281C550.031 170.344 549.167 173.031 547.438 175.344C549.167 177.74 550.031 180.177 550.031 182.656C550.031 185.448 549.531 188.01 548.531 190.344C547.531 192.656 546.177 194.583 544.469 196.125C542.781 197.667 540.812 198.865 538.562 199.719C536.312 200.573 533.927 201 531.406 201H516.906V198.75H531.406C533.594 198.75 535.688 198.344 537.688 197.531C539.688 196.698 541.427 195.573 542.906 194.156C544.385 192.74 545.562 191.031 546.438 189.031C547.333 187.031 547.781 184.906 547.781 182.656C547.781 181.656 547.542 180.458 547.062 179.062C546.604 177.646 545.917 176.396 545 175.312ZM572.281 172.156C570.531 173.906 569.656 176.021 569.656 178.5C569.656 180.979 570.531 183.104 572.281 184.875C574.052 186.625 576.177 187.5 578.656 187.5C581.135 187.5 583.25 186.625 585 184.875C586.771 183.104 587.656 180.979 587.656 178.5C587.656 176.021 586.771 173.906 585 172.156C583.25 170.385 581.135 169.5 578.656 169.5C576.177 169.5 574.052 170.385 572.281 172.156ZM570.688 186.469C568.5 184.26 567.406 181.604 567.406 178.5C567.406 175.396 568.5 172.75 570.688 170.562C572.896 168.354 575.552 167.25 578.656 167.25C581.76 167.25 584.406 168.354 586.594 170.562C588.802 172.75 589.906 175.396 589.906 178.5C589.906 181.604 588.802 184.26 586.594 186.469C584.406 188.656 581.76 189.75 578.656 189.75C575.552 189.75 572.896 188.656 570.688 186.469ZM569.094 168.969C566.469 171.615 565.156 174.792 565.156 178.5C565.156 182.208 566.469 185.385 569.094 188.031C571.74 190.677 574.927 192 578.656 192C582.385 192 585.562 190.677 588.188 188.031C590.833 185.385 592.156 182.208 592.156 178.5C592.156 174.792 590.833 171.615 588.188 168.969C585.562 166.323 582.385 165 578.656 165C574.927 165 571.74 166.323 569.094 168.969ZM565 186.406C563.604 183.99 562.906 181.354 562.906 178.5C562.906 175.646 563.604 173.01 565 170.594C566.417 168.177 568.333 166.271 570.75 164.875C573.167 163.458 575.802 162.75 578.656 162.75C581.51 162.75 584.146 163.458 586.562 164.875C588.979 166.271 590.885 168.177 592.281 170.594C593.698 173.01 594.406 175.646 594.406 178.5C594.406 181.354 593.698 183.99 592.281 186.406C590.885 188.823 588.979 190.74 586.562 192.156C584.146 193.552 581.51 194.25 578.656 194.25C575.802 194.25 573.167 193.552 570.75 192.156C568.333 190.74 566.417 188.823 565 186.406ZM562.062 171.531C561.125 173.74 560.656 176.062 560.656 178.5C560.656 180.938 561.125 183.271 562.062 185.5C563.021 187.708 564.302 189.625 565.906 191.25C567.531 192.854 569.448 194.135 571.656 195.094C573.885 196.031 576.219 196.5 578.656 196.5C581.094 196.5 583.417 196.031 585.625 195.094C587.854 194.135 589.771 192.854 591.375 191.25C593 189.625 594.281 187.708 595.219 185.5C596.177 183.271 596.656 180.938 596.656 178.5C596.656 176.062 596.177 173.74 595.219 171.531C594.281 169.302 593 167.385 591.375 165.781C589.771 164.156 587.854 162.875 585.625 161.938C583.417 160.979 581.094 160.5 578.656 160.5C576.219 160.5 573.885 160.979 571.656 161.938C569.448 162.875 567.531 164.156 565.906 165.781C564.302 167.385 563.021 169.302 562.062 171.531ZM560 186.375C558.938 183.875 558.406 181.25 558.406 178.5C558.406 175.75 558.938 173.125 560 170.625C561.083 168.125 562.521 165.979 564.312 164.188C566.125 162.375 568.281 160.938 570.781 159.875C573.281 158.792 575.906 158.25 578.656 158.25C581.406 158.25 584.031 158.792 586.531 159.875C589.031 160.938 591.177 162.375 592.969 164.188C594.781 165.979 596.219 168.125 597.281 170.625C598.365 173.125 598.906 175.75 598.906 178.5C598.906 181.25 598.365 183.875 597.281 186.375C596.219 188.875 594.781 191.031 592.969 192.844C591.177 194.635 589.031 196.073 586.531 197.156C584.031 198.219 581.406 198.75 578.656 198.75C575.906 198.75 573.281 198.219 570.781 197.156C568.281 196.073 566.125 194.635 564.312 192.844C562.521 191.031 561.083 188.875 560 186.375ZM557.938 169.781C556.75 172.552 556.156 175.458 556.156 178.5C556.156 181.542 556.75 184.458 557.938 187.25C559.125 190.021 560.719 192.417 562.719 194.438C564.74 196.438 567.135 198.031 569.906 199.219C572.698 200.406 575.615 201 578.656 201C581.698 201 584.604 200.406 587.375 199.219C590.167 198.031 592.562 196.438 594.562 194.438C596.583 192.417 598.188 190.021 599.375 187.25C600.562 184.458 601.156 181.542 601.156 178.5C601.156 175.458 600.562 172.552 599.375 169.781C598.188 166.99 596.583 164.594 594.562 162.594C592.562 160.573 590.167 158.969 587.375 157.781C584.604 156.594 581.698 156 578.656 156C575.615 156 572.698 156.594 569.906 157.781C567.135 158.969 564.74 160.573 562.719 162.594C560.719 164.594 559.125 166.99 557.938 169.781ZM555.875 188.125C554.562 185.062 553.906 181.854 553.906 178.5C553.906 175.146 554.562 171.948 555.875 168.906C557.188 165.844 558.948 163.208 561.156 161C563.365 158.792 565.99 157.031 569.031 155.719C572.094 154.406 575.302 153.75 578.656 153.75C582.01 153.75 585.208 154.406 588.25 155.719C591.312 157.031 593.948 158.792 596.156 161C598.365 163.208 600.125 165.844 601.438 168.906C602.75 171.948 603.406 175.146 603.406 178.5C603.406 181.854 602.75 185.062 601.438 188.125C600.125 191.167 598.365 193.792 596.156 196C593.948 198.208 591.312 199.969 588.25 201.281C585.208 202.594 582.01 203.25 578.656 203.25C575.302 203.25 572.094 202.594 569.031 201.281C565.99 199.969 563.365 198.208 561.156 196C558.948 193.792 557.188 191.167 555.875 188.125ZM630.344 172.156C628.594 173.906 627.719 176.021 627.719 178.5C627.719 180.979 628.594 183.104 630.344 184.875C632.115 186.625 634.24 187.5 636.719 187.5C639.198 187.5 641.312 186.625 643.062 184.875C644.833 183.104 645.719 180.979 645.719 178.5C645.719 176.021 644.833 173.906 643.062 172.156C641.312 170.385 639.198 169.5 636.719 169.5C634.24 169.5 632.115 170.385 630.344 172.156ZM628.75 186.469C626.562 184.26 625.469 181.604 625.469 178.5C625.469 175.396 626.562 172.75 628.75 170.562C630.958 168.354 633.615 167.25 636.719 167.25C639.823 167.25 642.469 168.354 644.656 170.562C646.865 172.75 647.969 175.396 647.969 178.5C647.969 181.604 646.865 184.26 644.656 186.469C642.469 188.656 639.823 189.75 636.719 189.75C633.615 189.75 630.958 188.656 628.75 186.469ZM627.156 168.969C624.531 171.615 623.219 174.792 623.219 178.5C623.219 182.208 624.531 185.385 627.156 188.031C629.802 190.677 632.99 192 636.719 192C640.448 192 643.625 190.677 646.25 188.031C648.896 185.385 650.219 182.208 650.219 178.5C650.219 174.792 648.896 171.615 646.25 168.969C643.625 166.323 640.448 165 636.719 165C632.99 165 629.802 166.323 627.156 168.969ZM623.062 186.406C621.667 183.99 620.969 181.354 620.969 178.5C620.969 175.646 621.667 173.01 623.062 170.594C624.479 168.177 626.396 166.271 628.812 164.875C631.229 163.458 633.865 162.75 636.719 162.75C639.573 162.75 642.208 163.458 644.625 164.875C647.042 166.271 648.948 168.177 650.344 170.594C651.76 173.01 652.469 175.646 652.469 178.5C652.469 181.354 651.76 183.99 650.344 186.406C648.948 188.823 647.042 190.74 644.625 192.156C642.208 193.552 639.573 194.25 636.719 194.25C633.865 194.25 631.229 193.552 628.812 192.156C626.396 190.74 624.479 188.823 623.062 186.406ZM620.125 171.531C619.188 173.74 618.719 176.062 618.719 178.5C618.719 180.938 619.188 183.271 620.125 185.5C621.083 187.708 622.365 189.625 623.969 191.25C625.594 192.854 627.51 194.135 629.719 195.094C631.948 196.031 634.281 196.5 636.719 196.5C639.156 196.5 641.479 196.031 643.688 195.094C645.917 194.135 647.833 192.854 649.438 191.25C651.062 189.625 652.344 187.708 653.281 185.5C654.24 183.271 654.719 180.938 654.719 178.5C654.719 176.062 654.24 173.74 653.281 171.531C652.344 169.302 651.062 167.385 649.438 165.781C647.833 164.156 645.917 162.875 643.688 161.938C641.479 160.979 639.156 160.5 636.719 160.5C634.281 160.5 631.948 160.979 629.719 161.938C627.51 162.875 625.594 164.156 623.969 165.781C622.365 167.385 621.083 169.302 620.125 171.531ZM618.062 186.375C617 183.875 616.469 181.25 616.469 178.5C616.469 175.75 617 173.125 618.062 170.625C619.146 168.125 620.583 165.979 622.375 164.188C624.188 162.375 626.344 160.938 628.844 159.875C631.344 158.792 633.969 158.25 636.719 158.25C639.469 158.25 642.094 158.792 644.594 159.875C647.094 160.938 649.24 162.375 651.031 164.188C652.844 165.979 654.281 168.125 655.344 170.625C656.427 173.125 656.969 175.75 656.969 178.5C656.969 181.25 656.427 183.875 655.344 186.375C654.281 188.875 652.844 191.031 651.031 192.844C649.24 194.635 647.094 196.073 644.594 197.156C642.094 198.219 639.469 198.75 636.719 198.75C633.969 198.75 631.344 198.219 628.844 197.156C626.344 196.073 624.188 194.635 622.375 192.844C620.583 191.031 619.146 188.875 618.062 186.375ZM616 169.781C614.812 172.552 614.219 175.458 614.219 178.5C614.219 181.542 614.812 184.458 616 187.25C617.188 190.021 618.781 192.417 620.781 194.438C622.802 196.438 625.198 198.031 627.969 199.219C630.76 200.406 633.677 201 636.719 201C639.76 201 642.667 200.406 645.438 199.219C648.229 198.031 650.625 196.438 652.625 194.438C654.646 192.417 656.25 190.021 657.438 187.25C658.625 184.458 659.219 181.542 659.219 178.5C659.219 175.458 658.625 172.552 657.438 169.781C656.25 166.99 654.646 164.594 652.625 162.594C650.625 160.573 648.229 158.969 645.438 157.781C642.667 156.594 639.76 156 636.719 156C633.677 156 630.76 156.594 627.969 157.781C625.198 158.969 622.802 160.573 620.781 162.594C618.781 164.594 617.188 166.99 616 169.781ZM613.938 188.125C612.625 185.062 611.969 181.854 611.969 178.5C611.969 175.146 612.625 171.948 613.938 168.906C615.25 165.844 617.01 163.208 619.219 161C621.427 158.792 624.052 157.031 627.094 155.719C630.156 154.406 633.365 153.75 636.719 153.75C640.073 153.75 643.271 154.406 646.312 155.719C649.375 157.031 652.01 158.792 654.219 161C656.427 163.208 658.188 165.844 659.5 168.906C660.812 171.948 661.469 175.146 661.469 178.5C661.469 181.854 660.812 185.062 659.5 188.125C658.188 191.167 656.427 193.792 654.219 196C652.01 198.208 649.375 199.969 646.312 201.281C643.271 202.594 640.073 203.25 636.719 203.25C633.365 203.25 630.156 202.594 627.094 201.281C624.052 199.969 621.427 198.208 619.219 196C617.01 193.792 615.25 191.167 613.938 188.125ZM713.812 156L701.281 178.688L713.625 201H711.125L698.781 178.688L711.312 156H713.812ZM708.781 156L696.25 178.688L708.594 201H706.094L693.75 178.688L706.281 156H708.781ZM703.75 156L691.219 178.688L703.562 201H701.062L688.719 178.688L701.25 156H703.75ZM698.719 156L686.156 178.688L698.531 201H696.031L683.656 178.688L696.219 156H698.719ZM680.031 156V201H682.281V156H680.031ZM675.531 156V201H677.781V156H675.531ZM671.031 156V201H673.281V156H671.031ZM666.531 156V201H668.781V156H666.531ZM738.531 179.594H734.969C730.594 179.594 727.229 178.708 724.875 176.938C722.521 175.146 721.344 172.688 721.344 169.562C721.344 166.646 722.729 164.219 725.5 162.281C728.271 160.323 732.156 159.344 737.156 159.344C740.49 159.344 743.594 159.802 746.469 160.719C749.365 161.635 751.771 162.927 753.688 164.594L751.938 166C750.229 164.604 748.083 163.521 745.5 162.75C742.917 161.979 740.135 161.594 737.156 161.594C732.76 161.594 729.396 162.344 727.062 163.844C724.75 165.344 723.594 167.25 723.594 169.562C723.594 172.062 724.542 173.99 726.438 175.344C728.354 176.677 731.198 177.344 734.969 177.344H738.406C742.844 177.344 746.24 178.24 748.594 180.031C750.969 181.802 752.156 184.25 752.156 187.375C752.156 190.292 750.771 192.729 748 194.688C745.229 196.625 741.344 197.594 736.344 197.594C733.01 197.594 729.896 197.135 727 196.219C724.125 195.302 721.729 194.01 719.812 192.344L721.562 190.938C723.271 192.333 725.417 193.417 728 194.188C730.583 194.958 733.365 195.344 736.344 195.344C740.74 195.344 744.094 194.594 746.406 193.094C748.74 191.594 749.906 189.688 749.906 187.375C749.906 184.875 748.948 182.958 747.031 181.625C745.135 180.271 742.302 179.594 738.531 179.594ZM738.531 184.094H734.969C729.177 184.094 724.708 182.781 721.562 180.156C718.417 177.51 716.844 173.979 716.844 169.562C716.844 167.542 717.292 165.646 718.188 163.875C719.083 162.104 720.365 160.552 722.031 159.219C723.719 157.865 725.865 156.802 728.469 156.031C731.073 155.24 733.969 154.844 737.156 154.844C741.177 154.844 744.938 155.458 748.438 156.688C751.938 157.896 754.854 159.594 757.188 161.781L755.375 163.125C753.25 161.208 750.594 159.729 747.406 158.688C744.219 157.625 740.802 157.094 737.156 157.094C731.531 157.094 727.115 158.281 723.906 160.656C720.698 163.031 719.094 166 719.094 169.562C719.094 173.333 720.469 176.323 723.219 178.531C725.969 180.74 729.885 181.844 734.969 181.844H738.406C744.573 181.844 747.656 183.688 747.656 187.375C747.656 189.042 746.708 190.417 744.812 191.5C742.938 192.562 740.115 193.094 736.344 193.094C733.698 193.094 731.24 192.792 728.969 192.188C726.698 191.562 724.823 190.677 723.344 189.531L725.125 188.156C727.729 189.948 731.469 190.844 736.344 190.844C739.469 190.844 741.76 190.521 743.219 189.875C744.677 189.229 745.406 188.396 745.406 187.375C745.406 186.188 744.896 185.344 743.875 184.844C742.854 184.344 741.073 184.094 738.531 184.094ZM738.531 175.094H734.969C728.885 175.094 725.844 173.25 725.844 169.562C725.844 167.896 726.781 166.531 728.656 165.469C730.552 164.385 733.385 163.844 737.156 163.844C739.802 163.844 742.26 164.156 744.531 164.781C746.802 165.385 748.677 166.26 750.156 167.406L748.375 168.781C745.771 166.99 742.031 166.094 737.156 166.094C734.031 166.094 731.74 166.417 730.281 167.062C728.823 167.708 728.094 168.542 728.094 169.562C728.094 170.75 728.604 171.594 729.625 172.094C730.646 172.594 732.427 172.844 734.969 172.844H738.531C744.323 172.844 748.792 174.167 751.938 176.812C755.083 179.438 756.656 182.958 756.656 187.375C756.656 189.396 756.208 191.292 755.312 193.062C754.417 194.833 753.125 196.396 751.438 197.75C749.771 199.083 747.635 200.146 745.031 200.938C742.427 201.708 739.531 202.094 736.344 202.094C732.323 202.094 728.562 201.49 725.062 200.281C721.562 199.052 718.646 197.344 716.312 195.156L718.125 193.812C720.25 195.729 722.906 197.219 726.094 198.281C729.281 199.323 732.698 199.844 736.344 199.844C741.969 199.844 746.385 198.656 749.594 196.281C752.802 193.906 754.406 190.938 754.406 187.375C754.406 183.604 753.031 180.615 750.281 178.406C747.531 176.198 743.615 175.094 738.531 175.094ZM769.562 168.469H771.812V201H769.562V168.469ZM760.562 158.25V156H794.312V158.25H760.562ZM760.562 162.75V160.5H794.312V162.75H760.562ZM760.562 167.25V165H794.312V167.25H760.562ZM783.062 168.469H785.312V201H783.062V168.469ZM778.562 168.469H780.812V201H778.562V168.469ZM774.062 168.469H776.312V201H774.062V168.469ZM816.469 172.156C814.719 173.906 813.844 176.021 813.844 178.5C813.844 180.979 814.719 183.104 816.469 184.875C818.24 186.625 820.365 187.5 822.844 187.5C825.323 187.5 827.438 186.625 829.188 184.875C830.958 183.104 831.844 180.979 831.844 178.5C831.844 176.021 830.958 173.906 829.188 172.156C827.438 170.385 825.323 169.5 822.844 169.5C820.365 169.5 818.24 170.385 816.469 172.156ZM814.875 186.469C812.688 184.26 811.594 181.604 811.594 178.5C811.594 175.396 812.688 172.75 814.875 170.562C817.083 168.354 819.74 167.25 822.844 167.25C825.948 167.25 828.594 168.354 830.781 170.562C832.99 172.75 834.094 175.396 834.094 178.5C834.094 181.604 832.99 184.26 830.781 186.469C828.594 188.656 825.948 189.75 822.844 189.75C819.74 189.75 817.083 188.656 814.875 186.469ZM813.281 168.969C810.656 171.615 809.344 174.792 809.344 178.5C809.344 182.208 810.656 185.385 813.281 188.031C815.927 190.677 819.115 192 822.844 192C826.573 192 829.75 190.677 832.375 188.031C835.021 185.385 836.344 182.208 836.344 178.5C836.344 174.792 835.021 171.615 832.375 168.969C829.75 166.323 826.573 165 822.844 165C819.115 165 815.927 166.323 813.281 168.969ZM809.188 186.406C807.792 183.99 807.094 181.354 807.094 178.5C807.094 175.646 807.792 173.01 809.188 170.594C810.604 168.177 812.521 166.271 814.938 164.875C817.354 163.458 819.99 162.75 822.844 162.75C825.698 162.75 828.333 163.458 830.75 164.875C833.167 166.271 835.073 168.177 836.469 170.594C837.885 173.01 838.594 175.646 838.594 178.5C838.594 181.354 837.885 183.99 836.469 186.406C835.073 188.823 833.167 190.74 830.75 192.156C828.333 193.552 825.698 194.25 822.844 194.25C819.99 194.25 817.354 193.552 814.938 192.156C812.521 190.74 810.604 188.823 809.188 186.406ZM806.25 171.531C805.312 173.74 804.844 176.062 804.844 178.5C804.844 180.938 805.312 183.271 806.25 185.5C807.208 187.708 808.49 189.625 810.094 191.25C811.719 192.854 813.635 194.135 815.844 195.094C818.073 196.031 820.406 196.5 822.844 196.5C825.281 196.5 827.604 196.031 829.812 195.094C832.042 194.135 833.958 192.854 835.562 191.25C837.188 189.625 838.469 187.708 839.406 185.5C840.365 183.271 840.844 180.938 840.844 178.5C840.844 176.062 840.365 173.74 839.406 171.531C838.469 169.302 837.188 167.385 835.562 165.781C833.958 164.156 832.042 162.875 829.812 161.938C827.604 160.979 825.281 160.5 822.844 160.5C820.406 160.5 818.073 160.979 815.844 161.938C813.635 162.875 811.719 164.156 810.094 165.781C808.49 167.385 807.208 169.302 806.25 171.531ZM804.188 186.375C803.125 183.875 802.594 181.25 802.594 178.5C802.594 175.75 803.125 173.125 804.188 170.625C805.271 168.125 806.708 165.979 808.5 164.188C810.312 162.375 812.469 160.938 814.969 159.875C817.469 158.792 820.094 158.25 822.844 158.25C825.594 158.25 828.219 158.792 830.719 159.875C833.219 160.938 835.365 162.375 837.156 164.188C838.969 165.979 840.406 168.125 841.469 170.625C842.552 173.125 843.094 175.75 843.094 178.5C843.094 181.25 842.552 183.875 841.469 186.375C840.406 188.875 838.969 191.031 837.156 192.844C835.365 194.635 833.219 196.073 830.719 197.156C828.219 198.219 825.594 198.75 822.844 198.75C820.094 198.75 817.469 198.219 814.969 197.156C812.469 196.073 810.312 194.635 808.5 192.844C806.708 191.031 805.271 188.875 804.188 186.375ZM802.125 169.781C800.938 172.552 800.344 175.458 800.344 178.5C800.344 181.542 800.938 184.458 802.125 187.25C803.312 190.021 804.906 192.417 806.906 194.438C808.927 196.438 811.323 198.031 814.094 199.219C816.885 200.406 819.802 201 822.844 201C825.885 201 828.792 200.406 831.562 199.219C834.354 198.031 836.75 196.438 838.75 194.438C840.771 192.417 842.375 190.021 843.562 187.25C844.75 184.458 845.344 181.542 845.344 178.5C845.344 175.458 844.75 172.552 843.562 169.781C842.375 166.99 840.771 164.594 838.75 162.594C836.75 160.573 834.354 158.969 831.562 157.781C828.792 156.594 825.885 156 822.844 156C819.802 156 816.885 156.594 814.094 157.781C811.323 158.969 808.927 160.573 806.906 162.594C804.906 164.594 803.312 166.99 802.125 169.781ZM800.062 188.125C798.75 185.062 798.094 181.854 798.094 178.5C798.094 175.146 798.75 171.948 800.062 168.906C801.375 165.844 803.135 163.208 805.344 161C807.552 158.792 810.177 157.031 813.219 155.719C816.281 154.406 819.49 153.75 822.844 153.75C826.198 153.75 829.396 154.406 832.438 155.719C835.5 157.031 838.135 158.792 840.344 161C842.552 163.208 844.312 165.844 845.625 168.906C846.938 171.948 847.594 175.146 847.594 178.5C847.594 181.854 846.938 185.062 845.625 188.125C844.312 191.167 842.552 193.792 840.344 196C838.135 198.208 835.5 199.969 832.438 201.281C829.396 202.594 826.198 203.25 822.844 203.25C819.49 203.25 816.281 202.594 813.219 201.281C810.177 199.969 807.552 198.208 805.344 196C803.135 193.792 801.375 191.167 800.062 188.125ZM869.656 179.5H883.219C885.01 179.5 886.531 178.938 887.781 177.812C889.031 176.688 889.656 175.104 889.656 173.062C889.656 171.562 889 170.219 887.688 169.031C886.396 167.844 884.906 167.25 883.219 167.25H863.906V201H861.656V165H883.219C885.531 165 887.552 165.812 889.281 167.438C891.031 169.062 891.906 170.938 891.906 173.062C891.906 175.708 891.062 177.823 889.375 179.406C887.688 180.969 885.635 181.75 883.219 181.75H869.656V179.5ZM869.656 184H883.219C886.219 184 888.792 182.979 890.938 180.938C893.083 178.896 894.156 176.271 894.156 173.062C894.156 170.333 893.062 167.938 890.875 165.875C888.688 163.792 886.135 162.75 883.219 162.75H859.406V201H857.156V160.5H883.219C886.76 160.5 889.844 161.76 892.469 164.281C895.094 166.781 896.406 169.708 896.406 173.062C896.406 176.812 895.104 179.948 892.5 182.469C889.917 184.99 886.823 186.25 883.219 186.25H869.656V184ZM869.656 188.5H883.219C885.99 188.5 888.552 187.833 890.906 186.5C893.26 185.167 895.135 183.312 896.531 180.938C897.948 178.562 898.656 175.938 898.656 173.062C898.656 170.458 897.958 168.021 896.562 165.75C895.167 163.458 893.271 161.635 890.875 160.281C888.5 158.927 885.948 158.25 883.219 158.25H854.906V201H852.656V156H883.219C885.573 156 887.833 156.469 890 157.406C892.188 158.323 894.073 159.552 895.656 161.094C897.24 162.615 898.51 164.427 899.469 166.531C900.427 168.635 900.906 170.812 900.906 173.062C900.906 176.708 900.073 179.896 898.406 182.625C896.74 185.333 894.5 187.396 891.688 188.812L896.406 201H894L889.531 189.719C888.969 189.906 888.312 190.094 887.562 190.281L891.781 201H889.375L885.25 190.656C884.604 190.719 883.927 190.75 883.219 190.75L887.188 201H884.812L880.875 190.75H878.844L882.625 201H880.25L876.438 190.75H869.656V188.5ZM868.406 201H866.156V169.5H883.219C884.385 169.5 885.375 169.854 886.188 170.562C887 171.25 887.406 172.083 887.406 173.062C887.406 175.854 886.01 177.25 883.219 177.25H869.656V175H883.219C884.51 175 885.156 174.354 885.156 173.062C885.156 172.708 884.958 172.406 884.562 172.156C884.188 171.885 883.74 171.75 883.219 171.75H868.406V201ZM917.156 201H914.906V156H917.156V201ZM912.656 201H910.406V156H912.656V201ZM908.156 201H905.906V156H908.156V201ZM921.656 189.75H943.188V192H921.656V194.25H943.188V196.5H921.656V198.75H943.188V201H919.406V156H943.188V158.25H921.656V160.5H943.188V162.75H921.656V165H943.188V167.25H921.656V172.844H941.938V175.094H921.656V177.344H941.938V179.594H921.656V181.844H941.938V184.094H921.656V189.75Z" fill="#C07E22"/>
</g>
<defs>
<filter id="filter0_d_1_5" x="1228.25" y="229" width="80.7512" height="44" filterUnits="userSpaceOnUse" color-interpolation-filters="sRGB">
<feFlood flood-opacity="0" result="BackgroundImageFix"/>
<feColorMatrix in="SourceAlpha" type="matrix" values="0 0 0 0 0 0 0 0 0 0 0 0 0 0 0 0 0 0 127 0" result="hardAlpha"/>
<feOffset dy="4"/>
<feGaussianBlur stdDeviation="2"/>
<feComposite in2="hardAlpha" operator="out"/>
<feColorMatrix type="matrix" values="0 0 0 0 0 0 0 0 0 0 0 0 0 0 0 0 0 0 0.25 0"/>
<feBlend mode="normal" in2="BackgroundImageFix" result="effect1_dropShadow_1_5"/>
<feBlend mode="normal" in="SourceGraphic" in2="effect1_dropShadow_1_5" result="shape"/>
</filter>
<filter id="filter1_d_1_5" x="1154.5" y="229" width="81.7479" height="44" filterUnits="userSpaceOnUse" color-interpolation-filters="sRGB">
<feFlood flood-opacity="0" result="BackgroundImageFix"/>
<feColorMatrix in="SourceAlpha" type="matrix" values="0 0 0 0 0 0 0 0 0 0 0 0 0 0 0 0 0 0 127 0" result="hardAlpha"/>
<feOffset dy="4"/>
<feGaussianBlur stdDeviation="2"/>
<feComposite in2="hardAlpha" operator="out"/>
<feColorMatrix type="matrix" values="0 0 0 0 0 0 0 0 0 0 0 0 0 0 0 0 0 0 0.25 0"/>
<feBlend mode="normal" in2="BackgroundImageFix" result="effect1_dropShadow_1_5"/>
<feBlend mode="normal" in="SourceGraphic" in2="effect1_dropShadow_1_5" result="shape"/>
</filter>
<filter id="filter2_d_1_5" x="1081.75" y="229" width="80.7512" height="44" filterUnits="userSpaceOnUse" color-interpolation-filters="sRGB">
<feFlood flood-opacity="0" result="BackgroundImageFix"/>
<feColorMatrix in="SourceAlpha" type="matrix" values="0 0 0 0 0 0 0 0 0 0 0 0 0 0 0 0 0 0 127 0" result="hardAlpha"/>
<feOffset dy="4"/>
<feGaussianBlur stdDeviation="2"/>
<feComposite in2="hardAlpha" operator="out"/>
<feColorMatrix type="matrix" values="0 0 0 0 0 0 0 0 0 0 0 0 0 0 0 0 0 0 0.25 0"/>
<feBlend mode="normal" in2="BackgroundImageFix" result="effect1_dropShadow_1_5"/>
<feBlend mode="normal" in="SourceGraphic" in2="effect1_dropShadow_1_5" result="shape"/>
</filter>
<filter id="filter3_d_1_5" x="1008" y="229" width="81.7479" height="44" filterUnits="userSpaceOnUse" color-interpolation-filters="sRGB">
<feFlood flood-opacity="0" result="BackgroundImageFix"/>
<feColorMatrix in="SourceAlpha" type="matrix" values="0 0 0 0 0 0 0 0 0 0 0 0 0 0 0 0 0 0 127 0" result="hardAlpha"/>
<feOffset dy="4"/>
<feGaussianBlur stdDeviation="2"/>
<feComposite in2="hardAlpha" operator="out"/>
<feColorMatrix type="matrix" values="0 0 0 0 0 0 0 0 0 0 0 0 0 0 0 0 0 0 0.25 0"/>
<feBlend mode="normal" in2="BackgroundImageFix" result="effect1_dropShadow_1_5"/>
<feBlend mode="normal" in="SourceGraphic" in2="effect1_dropShadow_1_5" result="shape"/>
</filter>
<filter id="filter4_d_1_5" x="862.499" y="229" width="80.7513" height="44" filterUnits="userSpaceOnUse" color-interpolation-filters="sRGB">
<feFlood flood-opacity="0" result="BackgroundImageFix"/>
<feColorMatrix in="SourceAlpha" type="matrix" values="0 0 0 0 0 0 0 0 0 0 0 0 0 0 0 0 0 0 127 0" result="hardAlpha"/>
<feOffset dy="4"/>
<feGaussianBlur stdDeviation="2"/>
<feComposite in2="hardAlpha" operator="out"/>
<feColorMatrix type="matrix" values="0 0 0 0 0 0 0 0 0 0 0 0 0 0 0 0 0 0 0.25 0"/>
<feBlend mode="normal" in2="BackgroundImageFix" result="effect1_dropShadow_1_5"/>
<feBlend mode="normal" in="SourceGraphic" in2="effect1_dropShadow_1_5" result="shape"/>
</filter>
<filter id="filter5_d_1_5" x="935.25" y="229" width="80.7513" height="44" filterUnits="userSpaceOnUse" color-interpolation-filters="sRGB">
<feFlood flood-opacity="0" result="BackgroundImageFix"/>
<feColorMatrix in="SourceAlpha" type="matrix" values="0 0 0 0 0 0 0 0 0 0 0 0 0 0 0 0 0 0 127 0" result="hardAlpha"/>
<feOffset dy="4"/>
<feGaussianBlur stdDeviation="2"/>
<feComposite in2="hardAlpha" operator="out"/>
<feColorMatrix type="matrix" values="0 0 0 0 0 0 0 0 0 0 0 0 0 0 0 0 0 0 0.25 0"/>
<feBlend mode="normal" in2="BackgroundImageFix" result="effect1_dropShadow_1_5"/>
<feBlend mode="normal" in="SourceGraphic" in2="effect1_dropShadow_1_5" result="shape"/>
</filter>
<filter id="filter6_d_1_5" x="788.751" y="229" width="81.7479" height="44" filterUnits="userSpaceOnUse" color-interpolation-filters="sRGB">
<feFlood flood-opacity="0" result="BackgroundImageFix"/>
<feColorMatrix in="SourceAlpha" type="matrix" values="0 0 0 0 0 0 0 0 0 0 0 0 0 0 0 0 0 0 127 0" result="hardAlpha"/>
<feOffset dy="4"/>
<feGaussianBlur stdDeviation="2"/>
<feComposite in2="hardAlpha" operator="out"/>
<feColorMatrix type="matrix" values="0 0 0 0 0 0 0 0 0 0 0 0 0 0 0 0 0 0 0.25 0"/>
<feBlend mode="normal" in2="BackgroundImageFix" result="effect1_dropShadow_1_5"/>
<feBlend mode="normal" in="SourceGraphic" in2="effect1_dropShadow_1_5" result="shape"/>
</filter>
<filter id="filter7_d_1_5" x="643.249" y="229" width="80.7513" height="44" filterUnits="userSpaceOnUse" color-interpolation-filters="sRGB">
<feFlood flood-opacity="0" result="BackgroundImageFix"/>
<feColorMatrix in="SourceAlpha" type="matrix" values="0 0 0 0 0 0 0 0 0 0 0 0 0 0 0 0 0 0 127 0" result="hardAlpha"/>
<feOffset dy="4"/>
<feGaussianBlur stdDeviation="2"/>
<feComposite in2="hardAlpha" operator="out"/>
<feColorMatrix type="matrix" values="0 0 0 0 0 0 0 0 0 0 0 0 0 0 0 0 0 0 0.25 0"/>
<feBlend mode="normal" in2="BackgroundImageFix" result="effect1_dropShadow_1_5"/>
<feBlend mode="normal" in="SourceGraphic" in2="effect1_dropShadow_1_5" result="shape"/>
</filter>
<filter id="filter8_d_1_5" x="716" y="229" width="80.7513" height="44" filterUnits="userSpaceOnUse" color-interpolation-filters="sRGB">
<feFlood flood-opacity="0" result="BackgroundImageFix"/>
<feColorMatrix in="SourceAlpha" type="matrix" values="0 0 0 0 0 0 0 0 0 0 0 0 0 0 0 0 0 0 127 0" result="hardAlpha"/>
<feOffset dy="4"/>
<feGaussianBlur stdDeviation="2"/>
<feComposite in2="hardAlpha" operator="out"/>
<feColorMatrix type="matrix" values="0 0 0 0 0 0 0 0 0 0 0 0 0 0 0 0 0 0 0.25 0"/>
<feBlend mode="normal" in2="BackgroundImageFix" result="effect1_dropShadow_1_5"/>
<feBlend mode="normal" in="SourceGraphic" in2="effect1_dropShadow_1_5" result="shape"/>
</filter>
<filter id="filter9_d_1_5" x="569.501" y="229" width="81.7479" height="44" filterUnits="userSpaceOnUse" color-interpolation-filters="sRGB">
<feFlood flood-opacity="0" result="BackgroundImageFix"/>
<feColorMatrix in="SourceAlpha" type="matrix" values="0 0 0 0 0 0 0 0 0 0 0 0 0 0 0 0 0 0 127 0" result="hardAlpha"/>
<feOffset dy="4"/>
<feGaussianBlur stdDeviation="2"/>
<feComposite in2="hardAlpha" operator="out"/>
<feColorMatrix type="matrix" values="0 0 0 0 0 0 0 0 0 0 0 0 0 0 0 0 0 0 0.25 0"/>
<feBlend mode="normal" in2="BackgroundImageFix" result="effect1_dropShadow_1_5"/>
<feBlend mode="normal" in="SourceGraphic" in2="effect1_dropShadow_1_5" result="shape"/>
</filter>
<filter id="filter10_d_1_5" x="423.002" y="229" width="81.7479" height="44" filterUnits="userSpaceOnUse" color-interpolation-filters="sRGB">
<feFlood flood-opacity="0" result="BackgroundImageFix"/>
<feColorMatrix in="SourceAlpha" type="matrix" values="0 0 0 0 0 0 0 0 0 0 0 0 0 0 0 0 0 0 127 0" result="hardAlpha"/>
<feOffset dy="4"/>
<feGaussianBlur stdDeviation="2"/>
<feComposite in2="hardAlpha" operator="out"/>
<feColorMatrix type="matrix" values="0 0 0 0 0 0 0 0 0 0 0 0 0 0 0 0 0 0 0.25 0"/>
<feBlend mode="normal" in2="BackgroundImageFix" result="effect1_dropShadow_1_5"/>
<feBlend mode="normal" in="SourceGraphic" in2="effect1_dropShadow_1_5" result="shape"/>
</filter>
<filter id="filter11_d_1_5" x="496.75" y="229" width="80.7513" height="44" filterUnits="userSpaceOnUse" color-interpolation-filters="sRGB">
<feFlood flood-opacity="0" result="BackgroundImageFix"/>
<feColorMatrix in="SourceAlpha" type="matrix" values="0 0 0 0 0 0 0 0 0 0 0 0 0 0 0 0 0 0 127 0" result="hardAlpha"/>
<feOffset dy="4"/>
<feGaussianBlur stdDeviation="2"/>
<feComposite in2="hardAlpha" operator="out"/>
<feColorMatrix type="matrix" values="0 0 0 0 0 0 0 0 0 0 0 0 0 0 0 0 0 0 0.25 0"/>
<feBlend mode="normal" in2="BackgroundImageFix" result="effect1_dropShadow_1_5"/>
<feBlend mode="normal" in="SourceGraphic" in2="effect1_dropShadow_1_5" result="shape"/>
</filter>
<filter id="filter12_d_1_5" x="350.25" y="229" width="80.7513" height="44" filterUnits="userSpaceOnUse" color-interpolation-filters="sRGB">
<feFlood flood-opacity="0" result="BackgroundImageFix"/>
<feColorMatrix in="SourceAlpha" type="matrix" values="0 0 0 0 0 0 0 0 0 0 0 0 0 0 0 0 0 0 127 0" result="hardAlpha"/>
<feOffset dy="4"/>
<feGaussianBlur stdDeviation="2"/>
<feComposite in2="hardAlpha" operator="out"/>
<feColorMatrix type="matrix" values="0 0 0 0 0 0 0 0 0 0 0 0 0 0 0 0 0 0 0.25 0"/>
<feBlend mode="normal" in2="BackgroundImageFix" result="effect1_dropShadow_1_5"/>
<feBlend mode="normal" in="SourceGraphic" in2="effect1_dropShadow_1_5" result="shape"/>
</filter>
<filter id="filter13_d_1_5" x="277.499" y="229" width="80.7513" height="44" filterUnits="userSpaceOnUse" color-interpolation-filters="sRGB">
<feFlood flood-opacity="0" result="BackgroundImageFix"/>
<feColorMatrix in="SourceAlpha" type="matrix" values="0 0 0 0 0 0 0 0 0 0 0 0 0 0 0 0 0 0 127 0" result="hardAlpha"/>
<feOffset dy="4"/>
<feGaussianBlur stdDeviation="2"/>
<feComposite in2="hardAlpha" operator="out"/>
<feColorMatrix type="matrix" values="0 0 0 0 0 0 0 0 0 0 0 0 0 0 0 0 0 0 0.25 0"/>
<feBlend mode="normal" in2="BackgroundImageFix" result="effect1_dropShadow_1_5"/>
<feBlend mode="normal" in="SourceGraphic" in2="effect1_dropShadow_1_5" result="shape"/>
</filter>
<filter id="filter14_d_1_5" x="203.751" y="229" width="81.7479" height="44" filterUnits="userSpaceOnUse" color-interpolation-filters="sRGB">
<feFlood flood-opacity="0" result="BackgroundImageFix"/>
<feColorMatrix in="SourceAlpha" type="matrix" values="0 0 0 0 0 0 0 0 0 0 0 0 0 0 0 0 0 0 127 0" result="hardAlpha"/>
<feOffset dy="4"/>
<feGaussianBlur stdDeviation="2"/>
<feComposite in2="hardAlpha" operator="out"/>
<feColorMatrix type="matrix" values="0 0 0 0 0 0 0 0 0 0 0 0 0 0 0 0 0 0 0.25 0"/>
<feBlend mode="normal" in2="BackgroundImageFix" result="effect1_dropShadow_1_5"/>
<feBlend mode="normal" in="SourceGraphic" in2="effect1_dropShadow_1_5" result="shape"/>
</filter>
<filter id="filter15_d_1_5" x="131" y="229" width="80.7513" height="44" filterUnits="userSpaceOnUse" color-interpolation-filters="sRGB">
<feFlood flood-opacity="0" result="BackgroundImageFix"/>
<feColorMatrix in="SourceAlpha" type="matrix" values="0 0 0 0 0 0 0 0 0 0 0 0 0 0 0 0 0 0 127 0" result="hardAlpha"/>
<feOffset dy="4"/>
<feGaussianBlur stdDeviation="2"/>
<feComposite in2="hardAlpha" operator="out"/>
<feColorMatrix type="matrix" values="0 0 0 0 0 0 0 0 0 0 0 0 0 0 0 0 0 0 0.25 0"/>
<feBlend mode="normal" in2="BackgroundImageFix" result="effect1_dropShadow_1_5"/>
<feBlend mode="normal" in="SourceGraphic" in2="effect1_dropShadow_1_5" result="shape"/>
</filter>
<clipPath id="clip0_1_5">
<rect width="1440" height="1024" fill="white"/>
</clipPath>
</defs>
</svg>
