<svg width="402" height="874" viewBox="0 0 402 874" fill="none" xmlns="http://www.w3.org/2000/svg">
<rect width="402" height="874" fill="#213A2A"/>
<rect x="13" y="31" width="375" height="812" rx="50" fill="#E2D9BC"/>
<rect x="28" y="47" width="345" height="780" rx="40" fill="#213A2A"/>
<path d="M371.978 140C371.539 150.172 364.437 158 356.049 158C347.661 158 340.559 150.172 340.12 140L340.43 140L344.063 140L356.049 140L368.035 140L371.668 140L371.978 140Z" fill="#E2D9BC" stroke="#213A2A" stroke-width="2"/>
<path d="M303.178 140C302.739 150.172 295.636 158 287.249 158C278.861 158 271.758 150.172 271.319 140L271.63 140L275.263 140L287.249 140L299.235 140L302.867 140L303.178 140Z" fill="#E2D9BC" stroke="#213A2A" stroke-width="2"/>
<path d="M337.08 140C336.654 150.199 329.746 158 321.649 158C313.551 158 306.643 150.199 306.217 140L306.489 140L310.015 140L321.649 140L333.282 140L336.808 140L337.08 140Z" fill="#E2D9BC" stroke="#213A2A" stroke-width="2"/>
<path d="M268.279 140C267.84 150.172 260.738 158 252.35 158C243.962 158 236.86 150.172 236.42 140L236.731 140L240.364 140L252.35 140L264.336 140L267.968 140L268.279 140Z" fill="#E2D9BC" stroke="#213A2A" stroke-width="2"/>
<path d="M199.478 140C199.039 150.172 191.937 158 183.549 158C175.161 158 168.059 150.172 167.62 140L167.93 140L171.563 140L183.549 140L195.535 140L199.168 140L199.478 140Z" fill="#E2D9BC" stroke="#213A2A" stroke-width="2"/>
<path d="M233.38 139C232.941 149.172 225.839 157 217.451 157C209.063 157 201.961 149.172 201.522 139L201.832 139L205.465 139L217.451 139L229.437 139L233.07 139L233.38 139Z" fill="#E2D9BC" stroke="#213A2A" stroke-width="2"/>
<path d="M164.58 140C164.14 150.172 157.038 158 148.65 158C140.262 158 133.16 150.172 132.721 140L133.032 140L136.664 140L148.65 140L160.636 140L164.269 140L164.58 140Z" fill="#E2D9BC" stroke="#213A2A" stroke-width="2"/>
<path d="M129.681 140C129.242 150.172 122.139 158 113.751 158C105.364 158 98.2613 150.172 97.8221 140L98.1326 140L101.765 140L113.751 140L125.737 140L129.37 140L129.681 140Z" fill="#E2D9BC" stroke="#213A2A" stroke-width="2"/>
<path d="M94.7826 140C94.3565 150.199 87.4487 158 79.3511 158C71.2535 158 64.3457 150.199 63.9196 140L64.1917 140L67.7176 140L79.3511 140L90.9847 140L94.5105 140L94.7826 140Z" fill="#E2D9BC" stroke="#213A2A" stroke-width="2"/>
<path d="M60.8802 140C60.441 150.172 53.3387 158 44.9509 158C36.563 158 29.4607 150.172 29.0215 140L29.3321 140L32.9648 140L44.9509 140L56.9369 140L60.5696 140L60.8802 140Z" fill="#E2D9BC" stroke="#213A2A" stroke-width="2"/>
<path d="M371.006 140H372.006V139V87C372.006 64.3563 353.65 46 331.006 46H69.9943C47.3506 46 28.9943 64.3563 28.9943 87V139V140H29.9943H371.006Z" fill="#E2D9BC" stroke="#213A2A" stroke-width="2"/>
<path d="M106.969 95.9844C106.969 95.5781 106.844 95.3073 106.594 95.1719C106.354 95.0365 106 94.9688 105.531 94.9688H98.2812V93.8438H105.531C107.24 93.8438 108.094 94.5573 108.094 95.9844C108.094 96.7865 107.859 97.3646 107.391 97.7188C106.922 98.0729 106.302 98.25 105.531 98.25H98.2812V97.125H105.531C106.49 97.125 106.969 96.7448 106.969 95.9844ZM97.6562 105H96.5312V85.875H105.531C106.24 85.875 106.844 86.0938 107.344 86.5312C107.844 86.9583 108.094 87.4948 108.094 88.1406C108.094 88.9948 107.859 89.6146 107.391 90C106.922 90.375 106.302 90.5625 105.531 90.5625H98.2812V89.4375H105.531C106.49 89.4375 106.969 89.0052 106.969 88.1406C106.969 87.7865 106.833 87.5104 106.562 87.3125C106.292 87.1042 105.948 87 105.531 87H97.6562V105ZM98.2812 91.6875H105.531C106.562 91.6875 107.432 91.3802 108.141 90.7656C108.859 90.1406 109.219 89.2656 109.219 88.1406C109.219 87.2344 108.844 86.4427 108.094 85.7656C107.354 85.0885 106.5 84.75 105.531 84.75H95.4062V105H94.2812V83.625H105.531C106.812 83.625 107.932 84.0781 108.891 84.9844C109.859 85.8802 110.344 86.9323 110.344 88.1406C110.344 89.0885 110.12 89.9167 109.672 90.625C109.234 91.3333 108.641 91.8802 107.891 92.2656C109.526 92.849 110.344 94.0365 110.344 95.8281C110.344 97.2448 109.875 98.3802 108.938 99.2344C108 100.078 106.865 100.5 105.531 100.5H98.2812V99.375H105.531C106.562 99.375 107.432 99.0677 108.141 98.4531C108.859 97.8281 109.219 96.9531 109.219 95.8281C109.219 95.0677 108.948 94.3958 108.406 93.8125C107.865 93.2292 107.068 92.8906 106.016 92.7969C105.911 92.8073 105.75 92.8125 105.531 92.8125H98.2812V91.6875ZM112.594 88.1406C112.594 89.599 112.078 90.9167 111.047 92.0938C112.078 93.2396 112.594 94.4844 112.594 95.8281C112.594 97.1302 112.266 98.3177 111.609 99.3906C110.964 100.453 110.099 101.281 109.016 101.875C107.943 102.458 106.781 102.75 105.531 102.75H98.2812V101.625H105.531C107.156 101.625 108.552 101.083 109.719 100C110.885 98.9062 111.469 97.5156 111.469 95.8281C111.469 95.224 111.312 94.5573 111 93.8281C110.698 93.0885 110.276 92.526 109.734 92.1406C110.891 91.0573 111.469 89.724 111.469 88.1406C111.469 86.6198 110.875 85.3021 109.688 84.1875C108.5 83.0625 107.115 82.5 105.531 82.5H93.1562V105H92.0312V81.375H105.531C106.771 81.375 107.932 81.6823 109.016 82.2969C110.109 82.901 110.979 83.7292 111.625 84.7812C112.271 85.8229 112.594 86.9427 112.594 88.1406ZM112.328 92.1562C113.255 90.9167 113.719 89.5781 113.719 88.1406C113.719 86.7344 113.344 85.4271 112.594 84.2188C111.854 83 110.854 82.0365 109.594 81.3281C108.333 80.6094 106.979 80.25 105.531 80.25H90.9062V105H89.7812V79.125H105.531C107.177 79.125 108.714 79.5312 110.141 80.3438C111.578 81.1562 112.719 82.2604 113.562 83.6562C114.417 85.0417 114.844 86.5365 114.844 88.1406C114.844 89.6719 114.411 91.0156 113.547 92.1719C114.411 93.3698 114.844 94.5885 114.844 95.8281C114.844 97.224 114.594 98.5052 114.094 99.6719C113.594 100.828 112.917 101.792 112.062 102.562C111.219 103.333 110.234 103.932 109.109 104.359C107.984 104.786 106.792 105 105.531 105H98.2812V103.875H105.531C106.625 103.875 107.672 103.672 108.672 103.266C109.672 102.849 110.542 102.286 111.281 101.578C112.021 100.87 112.609 100.016 113.047 99.0156C113.495 98.0156 113.719 96.9531 113.719 95.8281C113.719 95.3281 113.599 94.7292 113.359 94.0312C113.13 93.3229 112.786 92.6979 112.328 92.1562ZM125.969 90.5781C125.094 91.4531 124.656 92.5104 124.656 93.75C124.656 94.9896 125.094 96.0521 125.969 96.9375C126.854 97.8125 127.917 98.25 129.156 98.25C130.396 98.25 131.453 97.8125 132.328 96.9375C133.214 96.0521 133.656 94.9896 133.656 93.75C133.656 92.5104 133.214 91.4531 132.328 90.5781C131.453 89.6927 130.396 89.25 129.156 89.25C127.917 89.25 126.854 89.6927 125.969 90.5781ZM125.172 97.7344C124.078 96.6302 123.531 95.3021 123.531 93.75C123.531 92.1979 124.078 90.875 125.172 89.7812C126.276 88.6771 127.604 88.125 129.156 88.125C130.708 88.125 132.031 88.6771 133.125 89.7812C134.229 90.875 134.781 92.1979 134.781 93.75C134.781 95.3021 134.229 96.6302 133.125 97.7344C132.031 98.8281 130.708 99.375 129.156 99.375C127.604 99.375 126.276 98.8281 125.172 97.7344ZM124.375 88.9844C123.062 90.3073 122.406 91.8958 122.406 93.75C122.406 95.6042 123.062 97.1927 124.375 98.5156C125.698 99.8385 127.292 100.5 129.156 100.5C131.021 100.5 132.609 99.8385 133.922 98.5156C135.245 97.1927 135.906 95.6042 135.906 93.75C135.906 91.8958 135.245 90.3073 133.922 88.9844C132.609 87.6615 131.021 87 129.156 87C127.292 87 125.698 87.6615 124.375 88.9844ZM122.328 97.7031C121.63 96.4948 121.281 95.1771 121.281 93.75C121.281 92.3229 121.63 91.0052 122.328 89.7969C123.036 88.5885 123.995 87.6354 125.203 86.9375C126.411 86.2292 127.729 85.875 129.156 85.875C130.583 85.875 131.901 86.2292 133.109 86.9375C134.318 87.6354 135.271 88.5885 135.969 89.7969C136.677 91.0052 137.031 92.3229 137.031 93.75C137.031 95.1771 136.677 96.4948 135.969 97.7031C135.271 98.9115 134.318 99.8698 133.109 100.578C131.901 101.276 130.583 101.625 129.156 101.625C127.729 101.625 126.411 101.276 125.203 100.578C123.995 99.8698 123.036 98.9115 122.328 97.7031ZM120.859 90.2656C120.391 91.3698 120.156 92.5312 120.156 93.75C120.156 94.9688 120.391 96.1354 120.859 97.25C121.339 98.3542 121.979 99.3125 122.781 100.125C123.594 100.927 124.552 101.568 125.656 102.047C126.771 102.516 127.938 102.75 129.156 102.75C130.375 102.75 131.536 102.516 132.641 102.047C133.755 101.568 134.714 100.927 135.516 100.125C136.328 99.3125 136.969 98.3542 137.438 97.25C137.917 96.1354 138.156 94.9688 138.156 93.75C138.156 92.5312 137.917 91.3698 137.438 90.2656C136.969 89.151 136.328 88.1927 135.516 87.3906C134.714 86.5781 133.755 85.9375 132.641 85.4688C131.536 84.9896 130.375 84.75 129.156 84.75C127.938 84.75 126.771 84.9896 125.656 85.4688C124.552 85.9375 123.594 86.5781 122.781 87.3906C121.979 88.1927 121.339 89.151 120.859 90.2656ZM119.828 97.6875C119.297 96.4375 119.031 95.125 119.031 93.75C119.031 92.375 119.297 91.0625 119.828 89.8125C120.37 88.5625 121.089 87.4896 121.984 86.5938C122.891 85.6875 123.969 84.9688 125.219 84.4375C126.469 83.8958 127.781 83.625 129.156 83.625C130.531 83.625 131.844 83.8958 133.094 84.4375C134.344 84.9688 135.417 85.6875 136.312 86.5938C137.219 87.4896 137.938 88.5625 138.469 89.8125C139.01 91.0625 139.281 92.375 139.281 93.75C139.281 95.125 139.01 96.4375 138.469 97.6875C137.938 98.9375 137.219 100.016 136.312 100.922C135.417 101.818 134.344 102.536 133.094 103.078C131.844 103.609 130.531 103.875 129.156 103.875C127.781 103.875 126.469 103.609 125.219 103.078C123.969 102.536 122.891 101.818 121.984 100.922C121.089 100.016 120.37 98.9375 119.828 97.6875ZM118.797 89.3906C118.203 90.776 117.906 92.2292 117.906 93.75C117.906 95.2708 118.203 96.7292 118.797 98.125C119.391 99.5104 120.188 100.708 121.188 101.719C122.198 102.719 123.396 103.516 124.781 104.109C126.177 104.703 127.635 105 129.156 105C130.677 105 132.13 104.703 133.516 104.109C134.911 103.516 136.109 102.719 137.109 101.719C138.12 100.708 138.922 99.5104 139.516 98.125C140.109 96.7292 140.406 95.2708 140.406 93.75C140.406 92.2292 140.109 90.776 139.516 89.3906C138.922 87.9948 138.12 86.7969 137.109 85.7969C136.109 84.7865 134.911 83.9844 133.516 83.3906C132.13 82.7969 130.677 82.5 129.156 82.5C127.635 82.5 126.177 82.7969 124.781 83.3906C123.396 83.9844 122.198 84.7865 121.188 85.7969C120.188 86.7969 119.391 87.9948 118.797 89.3906ZM117.766 98.5625C117.109 97.0312 116.781 95.4271 116.781 93.75C116.781 92.0729 117.109 90.474 117.766 88.9531C118.422 87.4219 119.302 86.1042 120.406 85C121.51 83.8958 122.823 83.0156 124.344 82.3594C125.875 81.7031 127.479 81.375 129.156 81.375C130.833 81.375 132.432 81.7031 133.953 82.3594C135.484 83.0156 136.802 83.8958 137.906 85C139.01 86.1042 139.891 87.4219 140.547 88.9531C141.203 90.474 141.531 92.0729 141.531 93.75C141.531 95.4271 141.203 97.0312 140.547 98.5625C139.891 100.083 139.01 101.396 137.906 102.5C136.802 103.604 135.484 104.484 133.953 105.141C132.432 105.797 130.833 106.125 129.156 106.125C127.479 106.125 125.875 105.797 124.344 105.141C122.823 104.484 121.51 103.604 120.406 102.5C119.302 101.396 118.422 100.083 117.766 98.5625ZM155 90.5781C154.125 91.4531 153.688 92.5104 153.688 93.75C153.688 94.9896 154.125 96.0521 155 96.9375C155.885 97.8125 156.948 98.25 158.188 98.25C159.427 98.25 160.484 97.8125 161.359 96.9375C162.245 96.0521 162.688 94.9896 162.688 93.75C162.688 92.5104 162.245 91.4531 161.359 90.5781C160.484 89.6927 159.427 89.25 158.188 89.25C156.948 89.25 155.885 89.6927 155 90.5781ZM154.203 97.7344C153.109 96.6302 152.562 95.3021 152.562 93.75C152.562 92.1979 153.109 90.875 154.203 89.7812C155.307 88.6771 156.635 88.125 158.188 88.125C159.74 88.125 161.062 88.6771 162.156 89.7812C163.26 90.875 163.812 92.1979 163.812 93.75C163.812 95.3021 163.26 96.6302 162.156 97.7344C161.062 98.8281 159.74 99.375 158.188 99.375C156.635 99.375 155.307 98.8281 154.203 97.7344ZM153.406 88.9844C152.094 90.3073 151.438 91.8958 151.438 93.75C151.438 95.6042 152.094 97.1927 153.406 98.5156C154.729 99.8385 156.323 100.5 158.188 100.5C160.052 100.5 161.641 99.8385 162.953 98.5156C164.276 97.1927 164.938 95.6042 164.938 93.75C164.938 91.8958 164.276 90.3073 162.953 88.9844C161.641 87.6615 160.052 87 158.188 87C156.323 87 154.729 87.6615 153.406 88.9844ZM151.359 97.7031C150.661 96.4948 150.312 95.1771 150.312 93.75C150.312 92.3229 150.661 91.0052 151.359 89.7969C152.068 88.5885 153.026 87.6354 154.234 86.9375C155.443 86.2292 156.76 85.875 158.188 85.875C159.615 85.875 160.932 86.2292 162.141 86.9375C163.349 87.6354 164.302 88.5885 165 89.7969C165.708 91.0052 166.062 92.3229 166.062 93.75C166.062 95.1771 165.708 96.4948 165 97.7031C164.302 98.9115 163.349 99.8698 162.141 100.578C160.932 101.276 159.615 101.625 158.188 101.625C156.76 101.625 155.443 101.276 154.234 100.578C153.026 99.8698 152.068 98.9115 151.359 97.7031ZM149.891 90.2656C149.422 91.3698 149.188 92.5312 149.188 93.75C149.188 94.9688 149.422 96.1354 149.891 97.25C150.37 98.3542 151.01 99.3125 151.812 100.125C152.625 100.927 153.583 101.568 154.688 102.047C155.802 102.516 156.969 102.75 158.188 102.75C159.406 102.75 160.568 102.516 161.672 102.047C162.786 101.568 163.745 100.927 164.547 100.125C165.359 99.3125 166 98.3542 166.469 97.25C166.948 96.1354 167.188 94.9688 167.188 93.75C167.188 92.5312 166.948 91.3698 166.469 90.2656C166 89.151 165.359 88.1927 164.547 87.3906C163.745 86.5781 162.786 85.9375 161.672 85.4688C160.568 84.9896 159.406 84.75 158.188 84.75C156.969 84.75 155.802 84.9896 154.688 85.4688C153.583 85.9375 152.625 86.5781 151.812 87.3906C151.01 88.1927 150.37 89.151 149.891 90.2656ZM148.859 97.6875C148.328 96.4375 148.062 95.125 148.062 93.75C148.062 92.375 148.328 91.0625 148.859 89.8125C149.401 88.5625 150.12 87.4896 151.016 86.5938C151.922 85.6875 153 84.9688 154.25 84.4375C155.5 83.8958 156.812 83.625 158.188 83.625C159.562 83.625 160.875 83.8958 162.125 84.4375C163.375 84.9688 164.448 85.6875 165.344 86.5938C166.25 87.4896 166.969 88.5625 167.5 89.8125C168.042 91.0625 168.312 92.375 168.312 93.75C168.312 95.125 168.042 96.4375 167.5 97.6875C166.969 98.9375 166.25 100.016 165.344 100.922C164.448 101.818 163.375 102.536 162.125 103.078C160.875 103.609 159.562 103.875 158.188 103.875C156.812 103.875 155.5 103.609 154.25 103.078C153 102.536 151.922 101.818 151.016 100.922C150.12 100.016 149.401 98.9375 148.859 97.6875ZM147.828 89.3906C147.234 90.776 146.938 92.2292 146.938 93.75C146.938 95.2708 147.234 96.7292 147.828 98.125C148.422 99.5104 149.219 100.708 150.219 101.719C151.229 102.719 152.427 103.516 153.812 104.109C155.208 104.703 156.667 105 158.188 105C159.708 105 161.161 104.703 162.547 104.109C163.943 103.516 165.141 102.719 166.141 101.719C167.151 100.708 167.953 99.5104 168.547 98.125C169.141 96.7292 169.438 95.2708 169.438 93.75C169.438 92.2292 169.141 90.776 168.547 89.3906C167.953 87.9948 167.151 86.7969 166.141 85.7969C165.141 84.7865 163.943 83.9844 162.547 83.3906C161.161 82.7969 159.708 82.5 158.188 82.5C156.667 82.5 155.208 82.7969 153.812 83.3906C152.427 83.9844 151.229 84.7865 150.219 85.7969C149.219 86.7969 148.422 87.9948 147.828 89.3906ZM146.797 98.5625C146.141 97.0312 145.812 95.4271 145.812 93.75C145.812 92.0729 146.141 90.474 146.797 88.9531C147.453 87.4219 148.333 86.1042 149.438 85C150.542 83.8958 151.854 83.0156 153.375 82.3594C154.906 81.7031 156.51 81.375 158.188 81.375C159.865 81.375 161.464 81.7031 162.984 82.3594C164.516 83.0156 165.833 83.8958 166.938 85C168.042 86.1042 168.922 87.4219 169.578 88.9531C170.234 90.474 170.562 92.0729 170.562 93.75C170.562 95.4271 170.234 97.0312 169.578 98.5625C168.922 100.083 168.042 101.396 166.938 102.5C165.833 103.604 164.516 104.484 162.984 105.141C161.464 105.797 159.865 106.125 158.188 106.125C156.51 106.125 154.906 105.797 153.375 105.141C151.854 104.484 150.542 103.604 149.438 102.5C148.333 101.396 147.453 100.083 146.797 98.5625ZM196.734 82.5L190.469 93.8438L196.641 105H195.391L189.219 93.8438L195.484 82.5H196.734ZM194.219 82.5L187.953 93.8438L194.125 105H192.875L186.703 93.8438L192.969 82.5H194.219ZM191.703 82.5L185.438 93.8438L191.609 105H190.359L184.188 93.8438L190.453 82.5H191.703ZM189.188 82.5L182.906 93.8438L189.094 105H187.844L181.656 93.8438L187.938 82.5H189.188ZM179.844 82.5V105H180.969V82.5H179.844ZM177.594 82.5V105H178.719V82.5H177.594ZM175.344 82.5V105H176.469V82.5H175.344ZM173.094 82.5V105H174.219V82.5H173.094ZM209.094 94.2969H207.312C205.125 94.2969 203.443 93.8542 202.266 92.9688C201.089 92.0729 200.5 90.8438 200.5 89.2812C200.5 87.8229 201.193 86.6094 202.578 85.6406C203.964 84.6615 205.906 84.1719 208.406 84.1719C210.073 84.1719 211.625 84.401 213.062 84.8594C214.51 85.3177 215.714 85.9635 216.672 86.7969L215.797 87.5C214.943 86.8021 213.87 86.2604 212.578 85.875C211.286 85.4896 209.896 85.2969 208.406 85.2969C206.208 85.2969 204.526 85.6719 203.359 86.4219C202.203 87.1719 201.625 88.125 201.625 89.2812C201.625 90.5312 202.099 91.4948 203.047 92.1719C204.005 92.8385 205.427 93.1719 207.312 93.1719H209.031C211.25 93.1719 212.948 93.6198 214.125 94.5156C215.312 95.401 215.906 96.625 215.906 98.1875C215.906 99.6458 215.214 100.865 213.828 101.844C212.443 102.812 210.5 103.297 208 103.297C206.333 103.297 204.776 103.068 203.328 102.609C201.891 102.151 200.693 101.505 199.734 100.672L200.609 99.9688C201.464 100.667 202.536 101.208 203.828 101.594C205.12 101.979 206.51 102.172 208 102.172C210.198 102.172 211.875 101.797 213.031 101.047C214.198 100.297 214.781 99.3438 214.781 98.1875C214.781 96.9375 214.302 95.9792 213.344 95.3125C212.396 94.6354 210.979 94.2969 209.094 94.2969ZM209.094 96.5469H207.312C204.417 96.5469 202.182 95.8906 200.609 94.5781C199.036 93.2552 198.25 91.4896 198.25 89.2812C198.25 88.2708 198.474 87.3229 198.922 86.4375C199.37 85.5521 200.01 84.776 200.844 84.1094C201.688 83.4323 202.76 82.901 204.062 82.5156C205.365 82.1198 206.812 81.9219 208.406 81.9219C210.417 81.9219 212.297 82.2292 214.047 82.8438C215.797 83.4479 217.255 84.2969 218.422 85.3906L217.516 86.0625C216.453 85.1042 215.125 84.3646 213.531 83.8438C211.938 83.3125 210.229 83.0469 208.406 83.0469C205.594 83.0469 203.385 83.6406 201.781 84.8281C200.177 86.0156 199.375 87.5 199.375 89.2812C199.375 91.1667 200.062 92.6615 201.438 93.7656C202.812 94.8698 204.771 95.4219 207.312 95.4219H209.031C212.115 95.4219 213.656 96.3438 213.656 98.1875C213.656 99.0208 213.182 99.7083 212.234 100.25C211.297 100.781 209.885 101.047 208 101.047C206.677 101.047 205.448 100.896 204.312 100.594C203.177 100.281 202.24 99.8385 201.5 99.2656L202.391 98.5781C203.693 99.474 205.562 99.9219 208 99.9219C209.562 99.9219 210.708 99.7604 211.438 99.4375C212.167 99.1146 212.531 98.6979 212.531 98.1875C212.531 97.5938 212.276 97.1719 211.766 96.9219C211.255 96.6719 210.365 96.5469 209.094 96.5469ZM209.094 92.0469H207.312C204.271 92.0469 202.75 91.125 202.75 89.2812C202.75 88.4479 203.219 87.7656 204.156 87.2344C205.104 86.6927 206.521 86.4219 208.406 86.4219C209.729 86.4219 210.958 86.5781 212.094 86.8906C213.229 87.1927 214.167 87.6302 214.906 88.2031L214.016 88.8906C212.714 87.9948 210.844 87.5469 208.406 87.5469C206.844 87.5469 205.698 87.7083 204.969 88.0312C204.24 88.3542 203.875 88.7708 203.875 89.2812C203.875 89.875 204.13 90.2969 204.641 90.5469C205.151 90.7969 206.042 90.9219 207.312 90.9219H209.094C211.99 90.9219 214.224 91.5833 215.797 92.9062C217.37 94.2188 218.156 95.9792 218.156 98.1875C218.156 99.1979 217.932 100.146 217.484 101.031C217.036 101.917 216.391 102.698 215.547 103.375C214.714 104.042 213.646 104.573 212.344 104.969C211.042 105.354 209.594 105.547 208 105.547C205.99 105.547 204.109 105.245 202.359 104.641C200.609 104.026 199.151 103.172 197.984 102.078L198.891 101.406C199.953 102.365 201.281 103.109 202.875 103.641C204.469 104.161 206.177 104.422 208 104.422C210.812 104.422 213.021 103.828 214.625 102.641C216.229 101.453 217.031 99.9688 217.031 98.1875C217.031 96.3021 216.344 94.8073 214.969 93.7031C213.594 92.599 211.635 92.0469 209.094 92.0469ZM224.609 88.7344H225.734V105H224.609V88.7344ZM220.109 83.625V82.5H236.984V83.625H220.109ZM220.109 85.875V84.75H236.984V85.875H220.109ZM220.109 88.125V87H236.984V88.125H220.109ZM231.359 88.7344H232.484V105H231.359V88.7344ZM229.109 88.7344H230.234V105H229.109V88.7344ZM226.859 88.7344H227.984V105H226.859V88.7344ZM248.062 90.5781C247.188 91.4531 246.75 92.5104 246.75 93.75C246.75 94.9896 247.188 96.0521 248.062 96.9375C248.948 97.8125 250.01 98.25 251.25 98.25C252.49 98.25 253.547 97.8125 254.422 96.9375C255.307 96.0521 255.75 94.9896 255.75 93.75C255.75 92.5104 255.307 91.4531 254.422 90.5781C253.547 89.6927 252.49 89.25 251.25 89.25C250.01 89.25 248.948 89.6927 248.062 90.5781ZM247.266 97.7344C246.172 96.6302 245.625 95.3021 245.625 93.75C245.625 92.1979 246.172 90.875 247.266 89.7812C248.37 88.6771 249.698 88.125 251.25 88.125C252.802 88.125 254.125 88.6771 255.219 89.7812C256.323 90.875 256.875 92.1979 256.875 93.75C256.875 95.3021 256.323 96.6302 255.219 97.7344C254.125 98.8281 252.802 99.375 251.25 99.375C249.698 99.375 248.37 98.8281 247.266 97.7344ZM246.469 88.9844C245.156 90.3073 244.5 91.8958 244.5 93.75C244.5 95.6042 245.156 97.1927 246.469 98.5156C247.792 99.8385 249.385 100.5 251.25 100.5C253.115 100.5 254.703 99.8385 256.016 98.5156C257.339 97.1927 258 95.6042 258 93.75C258 91.8958 257.339 90.3073 256.016 88.9844C254.703 87.6615 253.115 87 251.25 87C249.385 87 247.792 87.6615 246.469 88.9844ZM244.422 97.7031C243.724 96.4948 243.375 95.1771 243.375 93.75C243.375 92.3229 243.724 91.0052 244.422 89.7969C245.13 88.5885 246.089 87.6354 247.297 86.9375C248.505 86.2292 249.823 85.875 251.25 85.875C252.677 85.875 253.995 86.2292 255.203 86.9375C256.411 87.6354 257.365 88.5885 258.062 89.7969C258.771 91.0052 259.125 92.3229 259.125 93.75C259.125 95.1771 258.771 96.4948 258.062 97.7031C257.365 98.9115 256.411 99.8698 255.203 100.578C253.995 101.276 252.677 101.625 251.25 101.625C249.823 101.625 248.505 101.276 247.297 100.578C246.089 99.8698 245.13 98.9115 244.422 97.7031ZM242.953 90.2656C242.484 91.3698 242.25 92.5312 242.25 93.75C242.25 94.9688 242.484 96.1354 242.953 97.25C243.432 98.3542 244.073 99.3125 244.875 100.125C245.688 100.927 246.646 101.568 247.75 102.047C248.865 102.516 250.031 102.75 251.25 102.75C252.469 102.75 253.63 102.516 254.734 102.047C255.849 101.568 256.807 100.927 257.609 100.125C258.422 99.3125 259.062 98.3542 259.531 97.25C260.01 96.1354 260.25 94.9688 260.25 93.75C260.25 92.5312 260.01 91.3698 259.531 90.2656C259.062 89.151 258.422 88.1927 257.609 87.3906C256.807 86.5781 255.849 85.9375 254.734 85.4688C253.63 84.9896 252.469 84.75 251.25 84.75C250.031 84.75 248.865 84.9896 247.75 85.4688C246.646 85.9375 245.688 86.5781 244.875 87.3906C244.073 88.1927 243.432 89.151 242.953 90.2656ZM241.922 97.6875C241.391 96.4375 241.125 95.125 241.125 93.75C241.125 92.375 241.391 91.0625 241.922 89.8125C242.464 88.5625 243.182 87.4896 244.078 86.5938C244.984 85.6875 246.062 84.9688 247.312 84.4375C248.562 83.8958 249.875 83.625 251.25 83.625C252.625 83.625 253.938 83.8958 255.188 84.4375C256.438 84.9688 257.51 85.6875 258.406 86.5938C259.312 87.4896 260.031 88.5625 260.562 89.8125C261.104 91.0625 261.375 92.375 261.375 93.75C261.375 95.125 261.104 96.4375 260.562 97.6875C260.031 98.9375 259.312 100.016 258.406 100.922C257.51 101.818 256.438 102.536 255.188 103.078C253.938 103.609 252.625 103.875 251.25 103.875C249.875 103.875 248.562 103.609 247.312 103.078C246.062 102.536 244.984 101.818 244.078 100.922C243.182 100.016 242.464 98.9375 241.922 97.6875ZM240.891 89.3906C240.297 90.776 240 92.2292 240 93.75C240 95.2708 240.297 96.7292 240.891 98.125C241.484 99.5104 242.281 100.708 243.281 101.719C244.292 102.719 245.49 103.516 246.875 104.109C248.271 104.703 249.729 105 251.25 105C252.771 105 254.224 104.703 255.609 104.109C257.005 103.516 258.203 102.719 259.203 101.719C260.214 100.708 261.016 99.5104 261.609 98.125C262.203 96.7292 262.5 95.2708 262.5 93.75C262.5 92.2292 262.203 90.776 261.609 89.3906C261.016 87.9948 260.214 86.7969 259.203 85.7969C258.203 84.7865 257.005 83.9844 255.609 83.3906C254.224 82.7969 252.771 82.5 251.25 82.5C249.729 82.5 248.271 82.7969 246.875 83.3906C245.49 83.9844 244.292 84.7865 243.281 85.7969C242.281 86.7969 241.484 87.9948 240.891 89.3906ZM239.859 98.5625C239.203 97.0312 238.875 95.4271 238.875 93.75C238.875 92.0729 239.203 90.474 239.859 88.9531C240.516 87.4219 241.396 86.1042 242.5 85C243.604 83.8958 244.917 83.0156 246.438 82.3594C247.969 81.7031 249.573 81.375 251.25 81.375C252.927 81.375 254.526 81.7031 256.047 82.3594C257.578 83.0156 258.896 83.8958 260 85C261.104 86.1042 261.984 87.4219 262.641 88.9531C263.297 90.474 263.625 92.0729 263.625 93.75C263.625 95.4271 263.297 97.0312 262.641 98.5625C261.984 100.083 261.104 101.396 260 102.5C258.896 103.604 257.578 104.484 256.047 105.141C254.526 105.797 252.927 106.125 251.25 106.125C249.573 106.125 247.969 105.797 246.438 105.141C244.917 104.484 243.604 103.604 242.5 102.5C241.396 101.396 240.516 100.083 239.859 98.5625ZM274.656 94.25H281.438C282.333 94.25 283.094 93.9688 283.719 93.4062C284.344 92.8438 284.656 92.0521 284.656 91.0312C284.656 90.2812 284.328 89.6094 283.672 89.0156C283.026 88.4219 282.281 88.125 281.438 88.125H271.781V105H270.656V87H281.438C282.594 87 283.604 87.4062 284.469 88.2188C285.344 89.0312 285.781 89.9688 285.781 91.0312C285.781 92.3542 285.359 93.4115 284.516 94.2031C283.672 94.9844 282.646 95.375 281.438 95.375H274.656V94.25ZM274.656 96.5H281.438C282.938 96.5 284.224 95.9896 285.297 94.9688C286.37 93.9479 286.906 92.6354 286.906 91.0312C286.906 89.6667 286.359 88.4688 285.266 87.4375C284.172 86.3958 282.896 85.875 281.438 85.875H269.531V105H268.406V84.75H281.438C283.208 84.75 284.75 85.3802 286.062 86.6406C287.375 87.8906 288.031 89.3542 288.031 91.0312C288.031 92.9062 287.38 94.474 286.078 95.7344C284.786 96.9948 283.24 97.625 281.438 97.625H274.656V96.5ZM274.656 98.75H281.438C282.823 98.75 284.104 98.4167 285.281 97.75C286.458 97.0833 287.396 96.1562 288.094 94.9688C288.802 93.7812 289.156 92.4688 289.156 91.0312C289.156 89.7292 288.807 88.5104 288.109 87.375C287.411 86.2292 286.464 85.3177 285.266 84.6406C284.078 83.9635 282.802 83.625 281.438 83.625H267.281V105H266.156V82.5H281.438C282.615 82.5 283.745 82.7344 284.828 83.2031C285.922 83.6615 286.865 84.276 287.656 85.0469C288.448 85.8073 289.083 86.7135 289.562 87.7656C290.042 88.8177 290.281 89.9062 290.281 91.0312C290.281 92.8542 289.865 94.4479 289.031 95.8125C288.198 97.1667 287.078 98.1979 285.672 98.9062L288.031 105H286.828L284.594 99.3594C284.312 99.4531 283.984 99.5469 283.609 99.6406L285.719 105H284.516L282.453 99.8281C282.13 99.8594 281.792 99.875 281.438 99.875L283.422 105H282.234L280.266 99.875H279.25L281.141 105H279.953L278.047 99.875H274.656V98.75ZM274.031 105H272.906V89.25H281.438C282.021 89.25 282.516 89.4271 282.922 89.7812C283.328 90.125 283.531 90.5417 283.531 91.0312C283.531 92.4271 282.833 93.125 281.438 93.125H274.656V92H281.438C282.083 92 282.406 91.6771 282.406 91.0312C282.406 90.8542 282.307 90.7031 282.109 90.5781C281.922 90.4427 281.698 90.375 281.438 90.375H274.031V105ZM298.406 105H297.281V82.5H298.406V105ZM296.156 105H295.031V82.5H296.156V105ZM293.906 105H292.781V82.5H293.906V105ZM300.656 99.375H311.422V100.5H300.656V101.625H311.422V102.75H300.656V103.875H311.422V105H299.531V82.5H311.422V83.625H300.656V84.75H311.422V85.875H300.656V87H311.422V88.125H300.656V90.9219H310.797V92.0469H300.656V93.1719H310.797V94.2969H300.656V95.4219H310.797V96.5469H300.656V99.375Z" fill="#C07E22"/>
</svg>
